<?xml version="1.0" encoding="UTF-8" standalone="no"?>
<svg
   viewBox="0 0 1505.3317 695.77447"
   height="695.77448"
   width="1505.3317"
   xml:space="preserve"
   id="svg2"
   version="1.1"
   xmlns="http://www.w3.org/2000/svg"
   xmlns:svg="http://www.w3.org/2000/svg"
   xmlns:rdf="http://www.w3.org/1999/02/22-rdf-syntax-ns#"
   xmlns:cc="http://creativecommons.org/ns#"
   xmlns:dc="http://purl.org/dc/elements/1.1/"><metadata
     id="metadata8"><rdf:RDF><cc:Work
         rdf:about=""><dc:format>image/svg+xml</dc:format><dc:type
           rdf:resource="http://purl.org/dc/dcmitype/StillImage" /></cc:Work></rdf:RDF></metadata><defs
     id="defs6" /><g
     transform="matrix(1.3333333,0,0,-1.3333333,-311.85775,2472.4492)"
     id="g10"
     style="display:inline"><g
       transform="scale(0.1)"
       id="g12"
       style="display:inline"><g
         transform="scale(2.45399)"
         id="g14"
         style="display:inline"><path
           id="path16"
           style="fill:none;fill-opacity:1;fill-rule:evenodd;stroke:none"
           d="M 0,0 H 16300 V 9168.71 H 0 V 0" /></g><g
         transform="scale(1.13763)"
         id="g18"
         style="display:inline"><path
           id="path20"
           style="fill:#ffffff;fill-opacity:1;fill-rule:evenodd;stroke:none"
           d="m 7000.07,16300 c 906.8,0 1666.67,-629.2 1866.9,-1474.8 186.79,104.8 402.15,164.5 631.58,164.5 692.45,0 1257.75,-544.3 1291.15,-1228.4 h 166.3 c 563.2,0 1024.1,-460.9 1024.1,-1024.2 0,-563.3 -460.9,-1024.1 -1024.1,-1024.1 H 3080.11 c -563.28,0 -1024.14,460.8 -1024.14,1024.1 0,563.3 460.86,1024.2 1024.14,1024.2 h 105.85 c 3.58,710.9 581,1286.1 1292.79,1286.1 242.8,0 469.96,-66.9 664.05,-183.3 213.99,825.9 964.4,1435.9 1857.27,1435.9" /></g><g
         transform="scale(1.53783)"
         id="g22"
         style="display:inline"><path
           id="path24"
           style="fill:#ffffff;fill-opacity:1;fill-rule:evenodd;stroke:none"
           d="m 12153.4,10713.4 c 226.1,497.5 727.4,843.6 1309.5,843.6 598.7,0 1112,-366.1 1328.2,-886.6 74.9,71.6 176.4,115.6 288.3,115.6 230.4,0 417.3,-186.9 417.3,-417.4 0,-102 -36.6,-195.5 -97.3,-268 84.9,-62.5 156.2,-142.38 208.8,-234.41 70.3,53.93 158.3,85.98 253.8,85.98 230.4,0 417.3,-186.86 417.3,-417.37 0,-99.83 -35,-191.46 -93.5,-263.28 71.8,-99.68 114.2,-221.77 114.2,-353.26 0,-333.83 -273.2,-606.96 -607,-606.96 h -4667.6 c -333.8,0 -606.9,273.13 -606.9,606.97 0,240 141.1,448.63 344.5,546.94 -1.5,14.47 -2.2,29.16 -2.2,44.03 0,230.51 186.8,417.37 417.3,417.37 95.5,0 183.4,-32.04 253.8,-85.96 52.5,92.02 123.9,171.95 208.8,234.45 -60.8,72.5 -97.3,165.9 -97.3,267.9 0,230.6 186.8,417.4 417.3,417.4 69.5,0 135.1,-17 192.7,-47" /></g><path
         id="path26"
         style="display:inline;fill:#ffffff;fill-opacity:1;fill-rule:evenodd;stroke:none"
         d="m 6166.59,7467.5 c 264.96,999.2 1175.53,1735.6 2258.11,1735.6 1107.7,0 2035.3,-771 2275.5,-1805.6 202.3,92.2 427.2,143.6 664,143.6 724.2,0 1336.1,-480.3 1534.6,-1139.7 71.1,13.5 144.4,20.5 219.4,20.5 613.7,0 1116.8,-473.4 1163.9,-1075 644.8,-149.5 1136.1,-842.3 1136.1,-1667.9 H 1882.46 c 0,933.8 628.58,1697.8 1396.85,1697.8 h 64.8 c 92.3,552.5 572.69,973.7 1151.44,973.7 75,0 148.35,-7.1 219.41,-20.6 190.89,634.1 764.04,1102.6 1451.63,1137.6" /><g
         transform="scale(1.67917)"
         id="g28"
         style="display:inline"><path
           id="path30"
           style="fill:#ffffff;fill-opacity:1;fill-rule:evenodd;stroke:none"
           d="m 11881.4,4421.96 c 357.6,0 672.5,-178.24 856.5,-448.68 88.8,39.31 187.3,61.16 291.1,61.16 285.1,0 530.6,-165.2 641.7,-402.93 94.2,55.02 204.3,86.65 322,86.65 346.3,0 627.2,-273.77 627.8,-611.68 94.2,108.81 235.1,177.95 392.5,177.95 265.5,0 483.9,-196.65 510.8,-448.8 h 161.7 c 338,0 614.5,-328.07 614.5,-729.05 h -5954.7 c 0,400.98 276.5,729.05 614.5,729.05 h 85.4 c -120.5,164.31 -191.4,365.66 -191.4,583.21 0,554.03 460,1003.12 1027.6,1003.12" /></g><g
         transform="scale(2.36539)"
         id="g32"
         style="display:inline"><path
           id="path34"
           style="fill:#ffffff;fill-opacity:1;fill-rule:evenodd;stroke:none"
           d="m 16300,2125.44 c 0,425.3 -344.8,770.06 -770.1,770.06 -294.6,0 -550.5,-165.38 -680,-408.34 -67.4,31.32 -142.4,48.78 -221.6,48.78 -166.3,0 -314.6,-77.15 -411,-197.6 -56.3,59.82 -136.2,97.16 -224.8,97.16 -170.5,0 -308.7,-138.21 -308.7,-308.66 0,-7.99 0.4,-15.94 0.9,-23.81 -10.6,2.03 -21.6,3.09 -32.9,3.09 -97,0 -175.7,-78.68 -175.7,-175.7 0,-25.83 5.6,-50.39 15.6,-72.5 -179.4,-25.75 -588.5,-247.53 -588.5,-515.06 h 2761.5 c 0,8.12 -0.2,16.15 -0.4,24.19 361.2,63.58 635.7,378.92 635.7,758.39" /></g><g
         transform="scale(2.32637)"
         id="g36"
         style="display:inline"><path
           id="path38"
           style="fill:#ffffff;fill-opacity:1;fill-rule:evenodd;stroke:none"
           d="m 12596.5,8162.14 c 474.3,0 872.5,-325.63 983.2,-765.49 75.5,23.35 155.7,35.92 238.9,35.92 344.6,0 638.9,-215.85 754.8,-519.73 68.9,32.54 145.9,50.74 227.1,50.74 208,0 388.1,-119.35 475.6,-293.31 45.3,104.11 149.1,176.91 270,176.91 162.5,0 294.3,-131.78 294.3,-294.33 0,-9.31 -0.4,-18.53 -1.2,-27.61 47.3,32.54 104.7,51.6 166.4,51.6 162.6,0 294.4,-131.78 294.4,-294.33 0,-162.56 -131.8,-294.34 -294.4,-294.34 -52.6,0 -102,13.81 -144.7,38.01 -36.5,-199.07 -211.9,-351.16 -421.1,-351.16 h -3291.6 c -235.4,0 -428,192.62 -428,428.04 0,132.9 61.3,252.16 157.2,330.83 -182.1,183.26 -294.6,435.74 -294.6,714.48 0,559.89 453.9,1013.77 1013.7,1013.77" /></g></g></g></svg>
