<?xml version="1.0" encoding="iso-8859-1"?>
<!-- Uploaded to: SVG Repo, www.svgrepo.com, Generator: SVG Repo Mixer Tools -->
<svg fill="#000000" height="800px" width="800px" version="1.1" id="Layer_1" xmlns="http://www.w3.org/2000/svg" xmlns:xlink="http://www.w3.org/1999/xlink" 
	 viewBox="0 0 512 512" xml:space="preserve">
<g>
	<g>
		<path d="M483.725,220.747l-87.723,50.647c-23.321-47.271-62.842-84.252-111.695-104.279V85.43
			c0-15.294-17.334-24.235-29.796-15.345l-140.85,100.469C61.834,194.249,20.891,238.318,1.166,291.777
			c-1.554,4.211-1.554,8.838,0,13.05c30.604,82.952,109.992,140.615,201.81,140.615c85.492,0,158.454-49.717,193.046-120.228
			l87.703,50.636c12.437,7.184,28.274-1.693,28.274-16.324V237.073C512,222.568,496.263,213.508,483.725,220.747z M246.609,122.029
			v33.566c-12.852-2.665-26.799-4.23-40.868-4.413L246.609,122.029z M189.029,285.941l21.403,12.358l-21.403,12.357V285.941z
			 M151.33,400.094c-49.251-14.956-91.429-51.534-112.24-101.786c19.529-47.012,59.881-85.868,112.24-101.814
			C151.33,204.533,151.33,392.428,151.33,400.094z M189.029,407.203v-53.016l68.527-39.563c12.559-7.252,12.54-25.408,0-32.649
			l-68.527-39.563v-53.014c79.933-6.152,149.626,41.086,177.834,108.912C338.089,367.777,267.451,413.276,189.029,407.203z
			 M474.301,326.876l-49.499-28.578l49.499-28.578V326.876z"/>
	</g>
</g>
</svg>