<svg id="visual" viewBox="0 0 900 900" width="900" height="900" xmlns="http://www.w3.org/2000/svg" xmlns:xlink="http://www.w3.org/1999/xlink" version="1.1"><rect x="0" y="0" width="900" height="900" fill="#001220"></rect><defs><linearGradient id="grad1_0" x1="0%" y1="0%" x2="100%" y2="100%"><stop offset="30%" stop-color="#fbae3c" stop-opacity="1"></stop><stop offset="70%" stop-color="#fbae3c" stop-opacity="1"></stop></linearGradient></defs><defs><linearGradient id="grad1_1" x1="0%" y1="0%" x2="100%" y2="100%"><stop offset="30%" stop-color="#fbae3c" stop-opacity="1"></stop><stop offset="70%" stop-color="#eb7458" stop-opacity="1"></stop></linearGradient></defs><defs><linearGradient id="grad1_2" x1="0%" y1="0%" x2="100%" y2="100%"><stop offset="30%" stop-color="#b84e6c" stop-opacity="1"></stop><stop offset="70%" stop-color="#eb7458" stop-opacity="1"></stop></linearGradient></defs><defs><linearGradient id="grad1_3" x1="0%" y1="0%" x2="100%" y2="100%"><stop offset="30%" stop-color="#b84e6c" stop-opacity="1"></stop><stop offset="70%" stop-color="#713c69" stop-opacity="1"></stop></linearGradient></defs><defs><linearGradient id="grad1_4" x1="0%" y1="0%" x2="100%" y2="100%"><stop offset="30%" stop-color="#2d2b4c" stop-opacity="1"></stop><stop offset="70%" stop-color="#713c69" stop-opacity="1"></stop></linearGradient></defs><defs><linearGradient id="grad1_5" x1="0%" y1="0%" x2="100%" y2="100%"><stop offset="30%" stop-color="#2d2b4c" stop-opacity="1"></stop><stop offset="70%" stop-color="#001220" stop-opacity="1"></stop></linearGradient></defs><defs><linearGradient id="grad2_0" x1="0%" y1="0%" x2="100%" y2="100%"><stop offset="30%" stop-color="#fbae3c" stop-opacity="1"></stop><stop offset="70%" stop-color="#fbae3c" stop-opacity="1"></stop></linearGradient></defs><defs><linearGradient id="grad2_1" x1="0%" y1="0%" x2="100%" y2="100%"><stop offset="30%" stop-color="#eb7458" stop-opacity="1"></stop><stop offset="70%" stop-color="#fbae3c" stop-opacity="1"></stop></linearGradient></defs><defs><linearGradient id="grad2_2" x1="0%" y1="0%" x2="100%" y2="100%"><stop offset="30%" stop-color="#eb7458" stop-opacity="1"></stop><stop offset="70%" stop-color="#b84e6c" stop-opacity="1"></stop></linearGradient></defs><defs><linearGradient id="grad2_3" x1="0%" y1="0%" x2="100%" y2="100%"><stop offset="30%" stop-color="#713c69" stop-opacity="1"></stop><stop offset="70%" stop-color="#b84e6c" stop-opacity="1"></stop></linearGradient></defs><defs><linearGradient id="grad2_4" x1="0%" y1="0%" x2="100%" y2="100%"><stop offset="30%" stop-color="#713c69" stop-opacity="1"></stop><stop offset="70%" stop-color="#2d2b4c" stop-opacity="1"></stop></linearGradient></defs><defs><linearGradient id="grad2_5" x1="0%" y1="0%" x2="100%" y2="100%"><stop offset="30%" stop-color="#001220" stop-opacity="1"></stop><stop offset="70%" stop-color="#2d2b4c" stop-opacity="1"></stop></linearGradient></defs><g transform="translate(900, 0)"><path d="M0 445.5C-61.3 442.7 -122.5 440 -170.5 411.6C-218.4 383.1 -253 329.1 -282.1 282.1C-311.3 235.2 -334.9 195.5 -361.2 149.6C-387.5 103.8 -416.5 51.9 -445.5 0L0 0Z" fill="#131f37"></path><path d="M0 371.2C-51.1 368.9 -102.1 366.7 -142.1 343C-182 319.3 -210.8 274.2 -235.1 235.1C-259.4 196 -279.1 162.9 -301 124.7C-323 86.5 -347.1 43.3 -371.2 0L0 0Z" fill="#4d345e"></path><path d="M0 297C-40.8 295.2 -81.7 293.3 -113.7 274.4C-145.6 255.4 -168.7 219.4 -188.1 188.1C-207.5 156.8 -223.3 130.3 -240.8 99.8C-258.4 69.2 -277.7 34.6 -297 0L0 0Z" fill="#96446e"></path><path d="M0 222.7C-30.6 221.4 -61.3 220 -85.2 205.8C-109.2 191.6 -126.5 164.5 -141.1 141.1C-155.6 117.6 -167.5 97.7 -180.6 74.8C-193.8 51.9 -208.3 26 -222.7 0L0 0Z" fill="#d55e64"></path><path d="M0 148.5C-20.4 147.6 -40.8 146.7 -56.8 137.2C-72.8 127.7 -84.3 109.7 -94 94C-103.8 78.4 -111.6 65.2 -120.4 49.9C-129.2 34.6 -138.8 17.3 -148.5 0L0 0Z" fill="#f88f4a"></path><path d="M0 74.2C-10.2 73.8 -20.4 73.3 -28.4 68.6C-36.4 63.9 -42.2 54.8 -47 47C-51.9 39.2 -55.8 32.6 -60.2 24.9C-64.6 17.3 -69.4 8.7 -74.2 0L0 0Z" fill="#fbae3c"></path></g><g transform="translate(0, 900)"><path d="M0 -445.5C59.6 -441.5 119.1 -437.5 170.5 -411.6C221.8 -385.6 264.9 -337.7 288.5 -288.5C312.1 -239.3 316.2 -188.7 339.1 -140.4C362 -92.1 403.7 -46.1 445.5 0L0 0Z" fill="#131f37"></path><path d="M0 -371.2C49.6 -367.9 99.3 -364.6 142.1 -343C184.8 -321.4 220.8 -281.4 240.4 -240.4C260.1 -199.4 263.5 -157.3 282.6 -117C301.6 -76.8 336.4 -38.4 371.2 0L0 0Z" fill="#4d345e"></path><path d="M0 -297C39.7 -294.3 79.4 -291.7 113.7 -274.4C147.9 -257.1 176.6 -225.1 192.3 -192.3C208.1 -159.5 210.8 -125.8 226 -93.6C241.3 -61.4 269.2 -30.7 297 0L0 0Z" fill="#96446e"></path><path d="M0 -222.7C29.8 -220.7 59.6 -218.8 85.2 -205.8C110.9 -192.8 132.5 -168.9 144.2 -144.2C156 -119.6 158.1 -94.4 169.5 -70.2C181 -46.1 201.9 -23 222.7 0L0 0Z" fill="#d55e64"></path><path d="M0 -148.5C19.9 -147.2 39.7 -145.8 56.8 -137.2C73.9 -128.5 88.3 -112.6 96.2 -96.2C104 -79.8 105.4 -62.9 113 -46.8C120.7 -30.7 134.6 -15.4 148.5 0L0 0Z" fill="#f88f4a"></path><path d="M0 -74.2C9.9 -73.6 19.9 -72.9 28.4 -68.6C37 -64.3 44.2 -56.3 48.1 -48.1C52 -39.9 52.7 -31.5 56.5 -23.4C60.3 -15.4 67.3 -7.7 74.2 0L0 0Z" fill="#fbae3c"></path></g></svg>