<svg id="visual" viewBox="0 0 900 900" width="900" height="900" xmlns="http://www.w3.org/2000/svg" xmlns:xlink="http://www.w3.org/1999/xlink" version="1.1"><rect x="0" y="0" width="900" height="900" fill="#001220"></rect><path d="M0 611L21.5 601.3C43 591.7 86 572.3 128.8 578.7C171.7 585 214.3 617 257.2 634.7C300 652.3 343 655.7 385.8 648.3C428.7 641 471.3 623 514.2 622.2C557 621.3 600 637.7 642.8 635.2C685.7 632.7 728.3 611.3 771.2 609C814 606.7 857 623.3 878.5 631.7L900 640L900 901L878.5 901C857 901 814 901 771.2 901C728.3 901 685.7 901 642.8 901C600 901 557 901 514.2 901C471.3 901 428.7 901 385.8 901C343 901 300 901 257.2 901C214.3 901 171.7 901 128.8 901C86 901 43 901 21.5 901L0 901Z" fill="#fa7268"></path><path d="M0 625L21.5 629.5C43 634 86 643 128.8 655C171.7 667 214.3 682 257.2 690.3C300 698.7 343 700.3 385.8 700.3C428.7 700.3 471.3 698.7 514.2 699.7C557 700.7 600 704.3 642.8 703.2C685.7 702 728.3 696 771.2 690.5C814 685 857 680 878.5 677.5L900 675L900 901L878.5 901C857 901 814 901 771.2 901C728.3 901 685.7 901 642.8 901C600 901 557 901 514.2 901C471.3 901 428.7 901 385.8 901C343 901 300 901 257.2 901C214.3 901 171.7 901 128.8 901C86 901 43 901 21.5 901L0 901Z" fill="#ef5f67"></path><path d="M0 674L21.5 673.5C43 673 86 672 128.8 681.3C171.7 690.7 214.3 710.3 257.2 713.8C300 717.3 343 704.7 385.8 705C428.7 705.3 471.3 718.7 514.2 720.2C557 721.7 600 711.3 642.8 707.8C685.7 704.3 728.3 707.7 771.2 702.5C814 697.3 857 683.7 878.5 676.8L900 670L900 901L878.5 901C857 901 814 901 771.2 901C728.3 901 685.7 901 642.8 901C600 901 557 901 514.2 901C471.3 901 428.7 901 385.8 901C343 901 300 901 257.2 901C214.3 901 171.7 901 128.8 901C86 901 43 901 21.5 901L0 901Z" fill="#e34c67"></path><path d="M0 762L21.5 767C43 772 86 782 128.8 776.7C171.7 771.3 214.3 750.7 257.2 752.2C300 753.7 343 777.3 385.8 777.2C428.7 777 471.3 753 514.2 755C557 757 600 785 642.8 786.2C685.7 787.3 728.3 761.7 771.2 760.2C814 758.7 857 781.3 878.5 792.7L900 804L900 901L878.5 901C857 901 814 901 771.2 901C728.3 901 685.7 901 642.8 901C600 901 557 901 514.2 901C471.3 901 428.7 901 385.8 901C343 901 300 901 257.2 901C214.3 901 171.7 901 128.8 901C86 901 43 901 21.5 901L0 901Z" fill="#d53867"></path><path d="M0 832L21.5 828.3C43 824.7 86 817.3 128.8 816.5C171.7 815.7 214.3 821.3 257.2 822.5C300 823.7 343 820.3 385.8 821.8C428.7 823.3 471.3 829.7 514.2 831.8C557 834 600 832 642.8 828.2C685.7 824.3 728.3 818.7 771.2 822.5C814 826.3 857 839.7 878.5 846.3L900 853L900 901L878.5 901C857 901 814 901 771.2 901C728.3 901 685.7 901 642.8 901C600 901 557 901 514.2 901C471.3 901 428.7 901 385.8 901C343 901 300 901 257.2 901C214.3 901 171.7 901 128.8 901C86 901 43 901 21.5 901L0 901Z" fill="#c62368"></path></svg>