<svg xmlns="http://www.w3.org/2000/svg" version="1.1" xmlns:xlink="http://www.w3.org/1999/xlink" xmlns:svgjs="http://svgjs.dev/svgjs" viewBox="0 0 800 800"><defs><linearGradient x1="50%" y1="0%" x2="50%" y2="100%" id="ccchaos-grad"><stop stop-color="hsl(206, 75%, 49%)" stop-opacity="1" offset="0%"></stop><stop stop-color="hsl(331, 90%, 56%)" stop-opacity="1" offset="100%"></stop></linearGradient></defs><g stroke-width="2" stroke="url(#ccchaos-grad)" fill="none" stroke-linecap="round"><path d="M378.95 118.1C388.32 123.05 397.66 127.08 406.94 129.71 416.23 130.27 425.49 129.34 434.69 127.3 443.94 124.19 453.17 121.24 462.39 119.11 471.68 117.9 480.99 118.58 490.33 121.36 499.78 125.89 509.3 132.41 518.88 140.53 528.61 149.57 538.43 159.29 548.32 169.18 558.36 178.59 568.47 187.39 578.61 195.35 588.85 202.07 599.07 207.84 609.19 212.81 619.3 216.7 629.2 220.19 638.78 223.53 648.16 226.45 657.07 229.72 665.36 233.5 673.22 237.46 680.29 242.2 686.43 247.76 691.93 253.75 696.35 260.56 699.59 268.11 702.06 276.07 703.3 284.64 703.28 293.66 702.53 302.97 700.6 312.58 697.55 322.35 694.04 332.26 689.64 342.22 684.49 352.12 679.33 362.06 673.76 371.87 667.96 381.46 662.67 391.06 657.59 400.2 652.88 408.89 649.02 417.6 645.65 425.89 642.8 433.84 640.89 441.9 639.45 449.76 638.43 457.54 638.19 465.64 638.19 473.91 638.3 482.52 638.91 491.75 639.4 501.61 639.65 512.24 640.06 523.68 640.02 536 639.44 549.17 638.75 562.9 637.37 577.12 635.27 591.47 632.88 605.43 629.71 618.61 625.75 630.38 621.46 640.34 616.4 647.91 610.61 652.62 604.52 654.76 597.75 653.96 590.4 650.5 582.79 645.72 574.67 639.79 566.11 633.83 557.39 629.61 548.3 627.57 538.91 628.66 529.44 633.78 519.72 642.6 509.83 654.65 499.9 669.1 489.84 684.33 479.68 698.56 469.52 710.32 459.28 717.83 449.01 719.98 438.75 716.94 428.46 708.65 418.16 696.28 407.85 682.33 397.78 668.59 387.95 657.08 378.1 649.59 368.47 646.6 359.06 648.1 349.63 653.98 340.39 662.49 331.36 672.02 322.28 681.62 313.38 689.08 304.67 693.23 295.88 693.89 287.27 690.21 278.82 682.5 270.29 671.6 261.92 658.13 253.72 643.18 245.44 627.79 237.32 612.88 229.38 599.2 221.37 587.32 213.55 577.49 205.96 569.69 198.32 564.07 190.93 560.07 183.82 557.21 176.71 555.61 169.91 554.29 163.47 552.82 157.09 551.53 151.11 549.46 145.56 546.43 140.13 542.99 135.18 538.41 130.74 532.73 126.46 526.55 122.72 519.39 119.55 511.4 116.58 503.07 114.18 494.12 112.4 484.71 110.8 475.14 109.81 465.27 109.44 455.22 109.22 445.13 109.6 434.94 110.6 424.71 111.69 414.47 113.33 404.42 115.46 394.55 117.62 384.65 120.22 374.85 123.24 365.12 126.2 355.26 129.53 345.36 133.19 335.34 136.72 325.1 140.56 314.65 144.67 303.96 148.61 293 152.8 281.78 157.23 270.35 161.47 258.81 165.94 247.22 170.64 235.75 175.16 224.58 179.91 213.89 184.9 203.96 189.74 194.87 194.83 186.93 200.18 180.37 205.43 174.96 210.96 171.02 216.76 168.5 222.51 166.75 228.56 165.94 234.9 165.7 241.22 165.09 247.86 164.18 254.79 162.54 261.72 159.39 268.96 155.01 276.49 149.35 284.03 142.24 291.85 134.41 299.94 126.39 308.03 118.5 316.38 111.73 324.96 106.71 333.55 103.52 342.35 102.76 351.36 104.44 360.36 107.72 369.56 112.52 378.94 118.1" stroke-dasharray="1 2" transform="rotate(0, 400, 400)" opacity="0.16"></path><path d="M380.79 129.22C389.84 134.13 398.89 138.21 407.92 140.98 416.96 141.79 426 141.15 435.02 139.39 444.07 136.47 453.15 133.52 462.22 131.16 471.37 129.46 480.56 129.41 489.78 131.25 499.11 134.73 508.5 140.19 517.94 147.34 527.51 155.61 537.14 164.85 546.82 174.56 556.61 184.15 566.43 193.46 576.23 202.18 586.09 209.91 595.87 216.78 605.5 222.83 615.07 227.79 624.39 232.16 633.33 236.15 642.06 239.49 650.27 242.86 657.86 246.45 665.02 249.94 671.4 253.95 676.88 258.59 681.75 263.44 685.61 269 688.35 275.26 690.41 281.81 691.33 288.99 691.08 296.71 690.2 304.66 688.24 313.03 685.26 321.7 681.89 330.51 677.71 339.51 672.84 348.61 667.97 357.75 662.72 366.92 657.24 376.08 652.22 385.23 647.37 394.13 642.82 402.79 639.04 411.48 635.67 420 632.76 428.4 630.7 436.95 629.05 445.52 627.78 454.25 627.23 463.3 626.91 472.7 626.71 482.57 626.99 492.96 627.19 503.99 627.21 515.7 627.44 527.93 627.28 540.78 626.66 554.1 626.01 567.5 624.75 580.9 622.85 593.88 620.74 606 617.93 616.88 614.41 625.99 608.35 635.56 592.37 638.83 582.64 633.34 575.72 628.47 568.3 623.24 560.41 618.63 552.38 616.18 543.95 616.15 535.2 619.21 526.36 625.95 517.24 635.87 507.92 648.38 498.55 662.62 489.01 677.08 479.35 690.17 469.67 700.66 459.88 707.04 450.02 708.42 440.17 705.07 430.26 696.97 420.3 685.16 410.35 671.9 400.59 658.75 391.03 647.49 381.47 639.77 372.09 636.07 362.91 636.48 353.7 641.06 344.67 648.34 335.82 656.99 326.93 666.24 318.2 674.04 309.65 679.26 301.03 681.65 292.56 680.17 284.26 674.9 275.89 666.47 267.66 655.15 259.61 641.86 251.48 627.49 243.51 612.84 235.73 598.7 227.9 585.66 220.26 574.13 212.84 564.31 205.39 556.39 198.2 550.11 191.28 545.19 184.38 541.71 177.79 538.94 171.56 536.49 165.4 534.62 159.62 532.46 154.28 529.74 149.06 526.97 144.3 523.35 140.05 518.83 135.95 514.01 132.39 508.26 129.38 501.68 126.55 494.82 124.3 487.23 122.64 479.03 121.15 470.68 120.26 461.85 119.97 452.64 119.83 443.37 120.28 433.8 121.32 423.97 122.45 414.13 124.11 404.28 126.26 394.42 128.42 384.53 131.02 374.59 134.02 364.57 136.96 354.46 140.25 344.21 143.87 333.78 147.37 323.22 151.15 312.45 155.2 301.49 159.09 290.44 163.22 279.25 167.57 268.02 171.75 256.92 176.14 246 180.75 235.45 185.18 225.42 189.84 216.09 194.7 207.7 199.43 200.22 204.38 193.95 209.58 189.02 217.33 183.71 234.04 179.38 243.03 178.74 249.08 177.71 255.42 176.13 262.04 173.66 268.65 169.68 275.55 164.52 282.72 158.23 289.89 150.75 297.35 142.8 305.06 134.91 312.77 127.38 320.73 121.09 328.94 116.61 337.14 113.92 345.57 113.57 354.22 115.51 362.86 118.91 371.72 123.7 380.78 129.22" stroke-dasharray="4 2" transform="rotate(4.04, 400, 400)" opacity="0.53"></path><path d="M383.29 140.34C392.04 145.21 400.81 149.31 409.58 152.21 418.37 153.26 427.18 152.93 435.99 151.46 444.85 148.78 453.73 145.91 462.64 143.41 471.61 141.33 480.63 140.63 489.69 141.62 498.83 144.07 508.04 148.43 517.28 154.53 526.62 161.85 536 170.36 545.4 179.62 554.87 189.09 564.33 198.59 573.73 207.8 583.14 216.3 592.43 224.13 601.52 231.23 610.51 237.32 619.21 242.74 627.51 247.63 635.56 251.75 643.09 255.66 649.99 259.53 656.47 263.06 662.18 266.86 667.03 271.06 672.99 277.63 678.95 293.84 678.83 303.51 677.85 310.29 675.88 317.56 672.99 325.24 669.77 333.01 665.8 341.11 661.21 349.47 656.64 357.87 651.7 366.47 646.52 375.24 641.77 384.02 637.14 392.76 632.77 401.48 629.07 410.23 625.73 419.02 622.77 427.91 620.58 436.94 618.75 446.18 617.25 455.72 616.42 465.54 615.8 475.79 615.3 486.52 615.28 497.61 615.2 509.22 614.98 521.31 615 533.61 614.7 546.19 614.01 558.82 613.33 571.14 612.14 582.99 610.39 593.99 608.49 603.83 605.97 612.14 602.8 618.52 597.4 624.24 583.05 622.17 574.23 616.02 567.96 611.64 561.18 607.54 553.94 604.56 546.56 603.99 538.78 605.91 530.66 610.75 522.44 618.83 513.93 629.56 505.17 642.25 496.37 656.08 487.37 669.64 478.2 681.55 469.02 690.8 459.7 696.12 450.28 696.79 440.85 693.2 431.33 685.3 421.75 674.04 412.16 661.47 402.73 648.91 393.47 637.93 384.2 630.06 375.09 625.73 366.15 625.15 357.19 628.47 348.38 634.51 339.74 642.16 331.05 650.84 322.52 658.69 314.13 664.62 305.7 668.38 297.41 668.83 289.27 665.82 281.08 659.83 273.02 650.84 265.13 639.55 257.19 626.72 249.4 612.98 241.8 599.09 234.16 585.61 226.72 573.06 219.5 561.76 212.27 551.95 205.29 543.61 198.58 536.63 191.92 531.08 185.56 526.51 179.55 522.58 173.62 519.49 168.07 516.53 162.94 513.41 155.67 508.84 143.75 496.61 139.21 488.56 136.54 482.78 134.43 476.26 132.89 469.07 131.52 461.77 130.73 453.87 130.52 445.44 130.46 436.97 130.96 428.03 132.04 418.66 133.21 409.3 134.89 399.74 137.03 390.02 139.19 380.3 141.78 370.39 144.75 360.32 147.66 350.21 150.92 339.91 154.49 329.43 157.95 318.93 161.68 308.27 165.67 297.52 169.5 286.84 173.57 276.18 177.85 265.68 181.97 255.48 186.29 245.67 190.81 236.44 195.17 227.84 199.73 220.08 204.49 213.36 209.11 207.5 213.95 202.8 219 199.31 226.53 195.66 242.67 192.6 251.33 191.52 257.13 189.86 263.21 187.49 269.55 184.14 275.86 179.35 282.46 173.49 289.31 166.69 296.15 158.97 303.26 151.02 310.63 143.37 317.99 136.27 325.6 130.52 333.46 126.59 341.3 124.41 349.39 124.44 357.7 126.62 366 130.11 374.53 134.9 383.28 140.34" stroke-dasharray="3 5" transform="rotate(8.08, 400, 400)" opacity="0.76"></path><path d="M386.38 151.46C394.83 156.27 403.31 160.39 411.83 163.4 420.35 164.68 428.92 164.66 437.51 163.51 446.13 161.11 454.8 158.38 463.51 155.83 472.26 153.47 481.07 152.24 489.91 152.46 498.82 153.96 507.77 157.23 516.75 162.2 525.8 168.46 534.87 176.04 543.92 184.6 553.01 193.64 562.05 203.01 570.99 212.39 579.91 221.38 588.66 229.92 597.18 237.89 605.57 245.03 613.63 251.53 621.27 257.45 628.66 262.57 635.51 267.31 641.73 271.83 650.1 277.88 662.08 290.39 665.4 297.45 666.75 302.29 667.14 307.64 666.55 313.5 665.49 319.42 663.53 325.84 660.74 332.73 657.67 339.67 653.92 347.03 649.6 354.78 645.31 362.54 640.67 370.66 635.81 379.12 631.31 387.58 626.91 396.2 622.71 404.96 619.11 413.76 615.8 422.77 612.82 432.02 610.53 441.38 608.54 451.06 606.84 461.1 605.77 471.33 604.87 481.96 604.1 492.99 603.77 504.18 603.42 515.71 602.97 527.44 602.76 539.08 602.29 550.66 601.5 561.9 600.77 572.54 599.6 582.36 597.94 591.01 590.59 605.89 573.22 604.93 565.22 599.04 559.54 595.61 553.37 592.96 546.74 591.79 539.98 593.09 532.81 596.82 525.3 603.2 517.69 612.34 509.76 623.57 501.58 636.2 493.34 649.43 484.87 662 476.22 672.7 467.54 680.75 458.7 685.07 449.72 685.11 440.74 681.3 431.64 673.63 422.44 662.92 413.24 651.02 404.15 639.05 395.21 628.4 386.26 620.43 377.44 615.58 368.76 614.09 360.07 616.23 351.51 621.03 343.08 627.6 334.63 635.52 326.31 643.14 318.12 649.45 309.9 654.22 301.81 656.25 293.85 655.26 285.86 651.57 278.01 644.96 270.31 635.87 262.57 624.97 254.99 612.67 247.6 599.66 240.18 586.47 232.96 573.61 225.96 561.49 218.97 550.36 212.22 540.4 205.76 531.63 199.34 524.14 193.22 517.68 187.45 512.05 181.77 507.37 176.46 503.11 171.57 499.04 164.64 493.53 153.32 481.21 149.05 473.79 146.55 468.59 144.58 462.75 143.16 456.26 141.91 449.71 141.22 442.55 141.08 434.79 141.09 427 141.65 418.66 142.76 409.8 143.96 400.94 145.64 391.79 147.78 382.39 149.94 373 152.5 363.37 155.43 353.54 158.32 343.73 161.54 333.74 165.05 323.62 168.46 313.56 172.14 303.45 176.06 293.38 179.85 283.5 183.86 273.81 188.07 264.45 192.12 255.52 196.37 247.12 200.81 239.44 205.1 232.41 209.58 226.27 214.24 221.16 221.13 215.1 235.76 208.53 243.53 207.19 248.7 206.22 254.11 205.19 259.76 203.8 265.34 201.38 271.19 198.13 277.28 193.92 283.33 188.38 289.64 181.92 296.21 174.75 302.75 166.93 309.55 159.12 316.61 151.81 323.64 145.21 330.93 140.03 338.45 136.68 345.97 134.99 353.73 135.39 361.72 137.77 369.7 141.35 377.92 146.1 386.37 151.46" stroke-dasharray="3 8" transform="rotate(12.12, 400, 400)" opacity="0.68"></path><path d="M389.93 162.58C398.09 167.33 406.29 171.44 414.53 174.55 422.79 176.06 431.1 176.33 439.44 175.51 447.81 173.43 456.23 170.91 464.69 168.4 473.19 165.87 481.73 164.23 490.31 163.79 498.93 164.41 507.59 166.65 516.24 170.5 524.94 175.61 533.64 182.12 542.28 189.76 550.94 198.09 559.51 207.02 567.94 216.23 576.33 225.35 584.51 234.29 592.43 242.87 600.2 250.85 607.62 258.29 614.61 265.2 621.33 271.37 627.53 277.1 633.1 282.49 640.55 289.65 650.97 303.27 653.71 310.34 654.85 317.53 652.16 333.93 648.51 343.26 645.6 349.63 642.08 356.47 638.02 363.76 634.01 371.05 629.66 378.79 625.09 386.98 620.85 395.17 616.67 403.63 612.64 412.36 609.15 421.12 605.9 430.18 602.91 439.54 600.54 448.98 598.43 458.76 596.56 468.85 595.26 479.03 594.12 489.52 593.09 500.23 592.49 510.92 591.87 521.7 591.18 532.41 590.75 542.8 590.1 552.81 589.19 562.18 587.77 574.55 582.83 591.33 579.11 594.79 574.7 594.84 562.98 587.7 555.72 582.87 550.57 580.75 544.94 579.75 538.88 580.42 532.7 583.5 526.11 588.83 519.17 596.47 512.14 606.35 504.79 617.81 497.16 630.14 489.48 642.61 481.54 654.11 473.4 663.6 465.23 670.5 456.87 673.89 448.35 673.36 439.82 669.4 431.15 661.96 422.35 651.81 413.55 640.56 404.83 629.18 396.23 618.88 387.62 610.89 379.11 605.61 370.71 603.32 362.31 604.35 354.01 607.93 345.84 613.37 337.64 620.39 329.56 627.54 321.6 633.93 313.61 639.34 305.74 642.58 298.01 643.29 290.25 641.68 282.61 637.33 275.13 630.52 267.63 621.77 260.29 611.32 253.13 599.72 245.96 587.46 238.98 574.98 232.23 562.74 225.5 550.99 219.01 540 212.8 529.93 206.65 520.84 200.8 512.71 195.29 505.44 189.87 499.07 184.81 493.31 180.16 487.96 175.64 483.19 171.54 478.51 167.9 473.77 162.91 466.91 155.66 451.47 153.45 442.56 152.32 436.43 151.72 429.74 151.66 422.49 151.74 415.23 152.34 407.42 153.47 399.07 154.7 390.73 156.39 382.08 158.51 373.17 160.65 364.28 163.19 355.15 166.07 345.86 168.92 336.63 172.09 327.28 175.54 317.89 178.9 308.64 182.53 299.45 186.38 290.44 190.11 281.7 194.05 273.28 198.19 265.33 202.18 257.84 206.37 250.99 210.73 244.9 217.15 237.09 230.68 226.7 237.81 223.92 244.97 221.94 260.17 218.37 268.26 215.36 273.65 212.09 279.28 207.97 285.15 202.94 290.96 196.77 297.03 189.86 303.33 182.48 309.6 174.69 316.13 167.14 322.89 160.27 329.63 154.23 336.61 149.65 343.84 146.86 351.04 145.66 358.49 146.41 366.18 148.98 373.85 152.61 381.77 157.32 389.92 162.57" stroke-dasharray="5 4" transform="rotate(16.16, 400, 400)" opacity="0.48"></path><path d="M393.84 173.7C401.69 178.37 409.61 182.47 417.57 185.66 425.54 187.38 433.57 187.95 441.64 187.47 449.73 185.73 457.87 183.47 466.04 181.08 474.24 178.49 482.48 176.56 490.74 175.58 499.03 175.44 507.33 176.73 515.61 179.49 523.92 183.44 532.19 188.79 540.38 195.35 548.55 202.75 556.62 210.95 564.51 219.66 572.33 228.56 579.93 237.53 587.23 246.39 594.38 254.89 601.16 263.03 607.49 270.75 613.58 277.88 619.13 284.57 624.09 290.89 628.71 296.65 632.65 302.16 635.86 307.53 639.67 315.01 642.69 330.08 641.89 338.1 640.74 343.44 638.87 349.17 636.3 355.3 633.56 361.4 630.25 367.94 626.46 374.93 622.72 381.91 618.66 389.37 614.37 397.31 610.38 405.25 606.43 413.51 602.57 422.06 599.2 430.64 596.01 439.52 593.04 448.69 590.61 457.89 588.4 467.36 586.39 477.04 584.89 486.71 583.53 496.52 582.27 506.36 581.42 516.03 580.55 525.55 579.64 534.73 578.97 543.46 578.15 551.57 577.1 558.84 568.11 575.58 552.42 571.06 545.8 567.9 541.12 567.31 535.99 568.05 530.44 570.5 524.78 575.18 518.74 581.85 512.34 590.43 505.86 600.76 499.05 612.18 491.96 624 484.81 635.58 477.4 645.96 469.76 654.25 462.1 660.05 454.23 662.59 446.17 661.56 438.1 657.49 429.87 650.31 421.49 640.69 413.1 630.09 404.77 619.3 396.52 609.38 388.27 601.43 380.09 595.81 372.01 592.82 363.92 592.83 355.92 595.24 348.01 599.53 340.1 605.54 332.28 612.02 324.58 618.19 316.86 623.9 309.24 627.99 301.75 630.03 294.25 630.2 286.87 627.92 279.64 623.3 272.41 616.79 265.32 608.41 258.42 598.6 251.53 587.79 244.82 576.32 238.34 564.63 231.89 552.95 225.69 541.62 219.75 530.86 213.89 520.73 208.31 511.35 203.07 502.73 197.93 494.87 193.14 487.66 188.74 480.98 184.47 474.88 180.61 469.08 177.19 463.43 173.92 458.12 171.11 452.76 168.78 447.22 166.61 441.82 164.94 436.12 163.77 430.05 162.76 424.02 162.25 417.56 162.26 410.65 162.4 403.73 163.04 396.36 164.19 388.52 165.43 380.69 167.12 372.59 169.21 364.3 171.34 356.04 173.83 347.61 176.67 339.1 179.47 330.67 182.58 322.22 185.97 313.85 189.27 305.65 192.83 297.62 196.61 289.9 200.28 282.47 204.16 275.47 208.22 269.02 212.15 262.99 216.27 257.62 220.55 253 226.87 247.13 240.15 239.57 247.13 237.43 254.12 235.43 268.93 230.31 276.77 226.03 281.99 221.89 287.44 216.96 293.1 211.22 298.71 204.55 304.55 197.36 310.61 189.91 316.64 182.32 322.9 175.14 329.4 168.79 335.86 163.36 342.57 159.4 349.51 157.17 356.42 156.43 363.58 157.5 370.97 160.23 378.35 163.91 385.97 168.55 393.83 173.69" stroke-dasharray="7 1" transform="rotate(20.200000000000003, 400, 400)" opacity="0.65"></path><path d="M397.96 184.82C405.51 189.39 413.13 193.47 420.79 196.73 428.47 198.64 436.19 199.49 443.96 199.35 451.74 197.98 459.57 196.03 467.41 193.83 475.28 191.29 483.18 189.18 491.07 187.81 498.98 187.04 506.89 187.49 514.75 189.25 522.61 192.06 530.42 196.23 538.11 201.62 545.78 207.92 553.3 215.15 560.63 223.08 567.87 231.41 574.86 240.06 581.55 248.82 588.07 257.48 594.22 265.97 599.92 274.21 605.39 282.04 610.34 289.52 614.72 296.66 618.79 303.32 622.22 309.7 624.97 315.86 628.19 324.47 630.48 341.13 629.53 349.57 628.38 355.12 626.56 360.94 624.13 367.07 621.55 373.14 618.46 379.58 614.93 386.41 611.44 393.22 607.66 400.46 603.65 408.15 599.91 415.84 596.17 423.81 592.5 432.02 589.26 440.25 586.14 448.71 583.2 457.38 580.74 466.02 578.45 474.82 576.33 483.68 574.67 492.45 573.12 501.17 571.66 509.73 570.57 518.01 569.48 525.94 568.34 533.34 561.94 556.87 551.49 560.67 546.84 557.73 541.64 555.54 528.95 556.72 521.52 562.01 516.34 568.03 510.79 575.75 504.89 584.96 498.93 595.43 492.64 606.56 486.05 617.69 479.42 628.29 472.52 637.51 465.38 644.64 458.21 649.41 450.82 651.17 443.22 649.71 435.62 645.56 427.83 638.65 419.88 629.57 411.92 619.6 404 609.41 396.12 599.9 388.25 592.04 380.42 586.16 372.67 582.57 364.92 581.67 357.23 582.99 349.63 586.14 342.02 591.07 334.5 596.72 327.08 602.44 319.65 608.12 312.32 612.68 305.11 615.69 297.9 617.27 290.8 616.76 283.85 614.15 276.91 609.81 270.12 603.57 263.5 595.76 256.9 586.77 250.5 576.79 244.31 566.2 238.17 555.27 232.26 544.27 226.62 533.47 221.05 522.95 215.78 512.91 210.82 503.43 205.96 494.49 201.45 486.13 197.31 478.3 193.3 470.99 189.69 464.06 186.49 457.44 183.45 451.16 180.84 445 178.69 438.87 176.69 432.93 175.16 426.86 174.11 420.62 173.21 414.45 172.8 408.01 172.87 401.28 173.07 394.56 173.75 387.52 174.91 380.15 176.16 372.79 177.83 365.28 179.89 357.68 181.99 350.11 184.44 342.5 187.22 334.91 189.97 327.4 193.01 319.99 196.32 312.77 199.57 305.73 203.05 298.96 206.75 292.58 210.35 286.47 214.15 280.85 218.14 275.79 224.03 269.01 236.46 259.08 242.98 255.83 249.49 253.14 263.18 248.53 270.37 245.68 275.14 242.92 280.09 239.62 285.23 235.66 290.3 230.72 295.58 225.07 301.05 218.79 306.47 211.79 312.1 204.49 317.95 197.14 323.75 189.87 329.78 183.17 336.02 177.41 342.24 172.62 348.68 169.29 355.35 167.61 361.99 167.31 368.87 168.66 375.97 171.54 383.06 175.23 390.39 179.79 397.95 184.81" stroke-dasharray="10 2" transform="rotate(24.24, 400, 400)" opacity="0.46"></path><path d="M402.14 195.94C409.4 200.41 416.7 204.44 424.05 207.75 431.41 209.84 438.81 210.96 446.24 211.15 453.69 210.16 461.17 208.56 468.66 206.62 476.16 204.21 483.67 202.05 491.16 200.42 498.66 199.18 506.13 198.93 513.53 199.8 520.92 201.56 528.23 204.58 535.4 208.77 542.53 213.87 549.49 219.97 556.24 226.89 562.89 234.37 569.28 242.35 575.35 250.65 581.26 259.07 586.8 267.54 591.9 275.93 596.77 284.11 601.16 292.08 604.99 299.8 608.55 307.17 611.52 314.28 613.85 321.16 615.87 327.7 617.24 334.09 617.94 340.37 618.34 346.4 618.08 352.43 617.17 358.52 616.02 364.45 614.28 370.54 611.98 376.82 609.57 383.02 606.7 389.49 603.41 396.24 600.18 402.97 596.67 410.03 592.93 417.44 589.43 424.84 585.91 432.42 582.43 440.15 579.31 447.87 576.29 455.71 573.4 463.61 570.93 471.47 568.59 479.31 566.38 487.07 564.58 494.67 562.87 502.06 561.23 509.11 559.28 518.98 555.62 535 553.68 540.59 544.58 544.59 530.73 541.57 525.14 542.81 521.21 545.43 516.9 549.4 512.22 554.85 507.47 561.94 502.37 570.37 496.93 579.89 491.44 590.24 485.63 600.86 479.53 611.15 473.39 620.7 466.97 628.76 460.31 634.77 453.62 638.58 446.7 639.64 439.57 637.81 432.44 633.63 425.1 627.01 417.58 618.45 410.06 609.11 402.55 599.5 395.07 590.42 387.59 582.72 380.14 576.67 372.74 572.59 365.35 570.87 358.01 571.18 350.73 573.22 343.47 577.04 336.27 581.75 329.16 586.82 322.05 592.19 315.04 596.88 308.13 600.47 301.24 603.08 294.45 603.99 287.81 603.1 281.19 600.72 274.71 596.56 268.4 590.8 262.13 583.82 256.05 575.64 250.17 566.59 244.35 556.93 238.76 546.86 233.44 536.65 228.19 526.4 223.22 516.33 218.56 506.58 214 497.11 209.77 488.08 205.9 479.49 202.16 471.28 198.79 463.46 195.83 456 193 448.84 190.59 441.92 188.62 435.17 186.79 428.6 185.41 422.08 184.49 415.56 183.7 409.12 183.37 402.59 183.5 395.94 183.75 389.31 184.46 382.51 185.63 375.57 186.88 368.62 188.53 361.67 190.56 354.78 192.61 347.91 195.01 341.12 197.72 334.48 200.41 327.91 203.39 321.55 206.61 315.47 209.78 309.54 213.19 303.96 216.8 298.81 222.19 291.63 233.72 280.17 239.82 275.93 245.91 272.33 258.7 266.78 265.39 264.2 272.09 260.78 286.18 251.06 293.59 244.19 298.52 238.56 303.64 232.36 308.94 225.71 314.18 218.57 319.62 211.33 325.26 204.25 330.86 197.42 336.66 191.29 342.67 186.17 348.65 182.05 354.84 179.34 361.24 178.19 367.63 178.3 374.23 179.91 381.05 182.89 387.85 186.58 394.88 191.05 402.13 195.93" stroke-dasharray="6 6" transform="rotate(28.28, 400, 400)" opacity="0.42"></path><path d="M406.26 207.05C413.2 211.41 420.18 215.38 427.2 218.73 434.22 220.97 441.28 222.34 448.35 222.85 455.44 222.25 462.54 221.02 469.64 219.39 476.75 217.21 483.84 215.11 490.89 213.35 497.95 211.79 504.95 211 511.86 211.13 518.75 211.97 525.54 213.92 532.17 216.96 538.75 220.84 545.14 225.72 551.31 231.49 557.37 237.89 563.16 244.93 568.63 252.46 573.95 260.27 578.9 268.32 583.42 276.47 587.74 284.62 591.59 292.7 594.94 300.64 598.03 308.4 600.57 315.98 602.54 323.35 604.23 330.48 605.34 337.44 605.83 344.26 606.08 350.87 605.73 357.4 604.8 363.9 603.68 370.26 602.02 376.66 599.87 383.13 597.62 389.53 594.96 396.07 591.92 402.77 588.94 409.45 585.69 416.32 582.21 423.4 578.95 430.47 575.64 437.59 572.35 444.7 569.37 451.81 566.45 458.89 563.62 465.87 561.16 472.8 558.79 479.56 556.52 486.08 553.7 495.43 548.78 511.59 546.53 517.96 538.78 527.66 528.45 527.9 524.32 527.72 519.8 529.49 508.98 539.73 502.67 548.91 498.3 556.73 493.6 565.55 488.58 575.08 483.52 585.06 478.15 594.98 472.5 604.32 466.82 612.77 460.87 619.69 454.67 624.63 448.45 627.56 441.99 628 435.32 625.86 428.64 621.69 421.75 615.37 414.68 607.33 407.6 598.6 400.51 589.58 393.44 580.94 386.36 573.44 379.31 567.31 372.29 562.84 365.27 560.43 358.3 559.81 351.38 560.82 344.47 563.53 337.63 567.24 330.86 571.5 324.1 576.33 317.43 580.85 310.86 584.66 304.31 587.9 297.87 589.83 291.56 590.31 285.28 589.6 279.14 587.29 273.17 583.49 267.24 578.52 261.5 572.29 255.96 565.04 250.48 557.01 245.23 548.33 240.23 539.23 235.3 529.84 230.65 520.35 226.3 510.92 222.05 501.55 218.11 492.4 214.52 483.55 211.05 474.91 207.93 466.6 205.2 458.62 202.6 450.86 200.39 443.38 198.6 436.15 196.94 429.06 195.69 422.15 194.89 415.36 194.21 408.65 193.96 402 194.15 395.39 194.45 388.8 195.18 382.22 196.35 375.63 197.59 369.05 199.22 362.62 201.2 356.37 203.21 350.13 205.55 344.1 208.18 338.32 210.8 332.59 213.69 327.16 216.83 322.07 221.57 314.78 232 302.43 237.62 297.47 243.27 293.06 255.2 286.07 261.46 283.11 267.72 279.8 280.82 271.78 287.68 266.47 292.22 262.04 296.92 257.09 301.78 251.61 306.57 245.46 311.53 238.91 316.66 232.08 321.74 224.99 327.01 217.99 332.45 211.32 337.85 205.04 343.44 199.55 349.22 195.12 354.97 191.66 360.92 189.56 367.07 188.92 373.19 189.39 379.53 191.23 386.06 194.29 392.58 197.96 399.31 202.32 406.25 207.05" stroke-dasharray="9 8" transform="rotate(32.32, 400, 400)" opacity="0.79"></path><path d="M410.16 218.17C416.77 222.4 423.41 226.3 430.08 229.65 436.75 232.03 443.44 233.63 450.14 234.45 456.84 234.22 463.54 233.39 470.22 232.11 476.9 230.22 483.56 228.29 490.15 226.54 496.73 224.8 503.24 223.64 509.65 223.2 516.02 223.28 522.27 224.3 528.35 226.28 534.38 228.99 540.2 232.66 545.79 237.21 551.28 242.4 556.49 248.32 561.38 254.82 566.13 261.73 570.52 269.02 574.51 276.57 578.31 284.27 581.67 292.07 584.56 299.86 587.23 307.62 589.39 315.29 591.03 322.83 592.45 330.25 593.32 337.53 593.65 344.66 593.77 351.66 593.37 358.54 592.44 365.32 591.36 372 589.8 378.64 587.79 385.24 585.71 391.8 583.26 398.37 580.46 404.97 577.71 411.56 574.71 418.21 571.49 424.9 568.46 431.6 565.37 438.18 562.26 444.64 559.43 451.07 556.62 457.33 553.87 463.37 550.25 472.18 543.81 487.9 540.94 494.51 528.21 510.5 517.18 513.83 513.22 515.59 508.95 519.47 498.84 533.54 492.98 543.97 488.94 552.21 484.6 561.09 479.96 570.35 475.29 579.75 470.33 588.82 465.1 597.14 459.84 604.47 454.33 610.29 448.57 614.24 442.79 616.35 436.78 616.25 430.56 613.87 424.33 609.74 417.89 603.73 411.26 596.21 404.63 588.08 397.98 579.64 391.32 571.47 384.67 564.22 378.02 558.08 371.4 553.32 364.78 550.33 358.19 548.9 351.66 548.94 345.13 550.59 338.66 553.26 332.26 556.61 325.87 560.71 319.57 564.8 313.36 568.52 307.18 572.01 301.1 574.58 295.15 576.03 289.24 576.61 283.46 575.86 277.85 573.78 272.29 570.69 266.9 566.37 261.71 560.97 256.59 554.77 251.68 547.76 247.02 540.14 242.44 532.07 238.11 523.65 234.08 515.08 230.14 506.35 226.5 497.65 223.18 489.07 219.98 480.54 217.12 472.21 214.62 464.14 212.24 456.18 210.23 448.47 208.61 441.02 207.12 433.67 206.02 426.54 205.32 419.62 204.75 412.76 204.57 406.06 204.82 399.52 205.16 393 205.91 386.6 207.07 380.34 208.3 374.07 209.89 368.08 211.82 362.37 214.91 353.97 222.53 338.76 226.97 332.05 231.57 325.77 241.7 315.17 247.16 310.81 252.67 306.71 264.31 299.41 270.42 295.82 276.53 291.6 289.33 281.24 296.01 274.69 300.44 269.55 305.01 263.97 309.73 257.99 314.39 251.53 319.2 244.83 324.17 238.04 329.09 231.19 334.18 224.58 339.42 218.45 344.63 212.81 350.02 208.02 355.57 204.28 361.1 201.49 366.81 199.98 372.7 199.79 378.58 200.61 384.63 202.64 390.88 205.75 397.11 209.36 403.54 213.6 410.15 218.17" stroke-dasharray="7 11" transform="rotate(36.36, 400, 400)" opacity="0.91"></path><path d="M413.7 229.29C419.98 233.38 426.27 237.19 432.57 240.53 438.87 243.01 445.18 244.81 451.48 245.92 464.07 245.3 476.6 242.85 488.84 239.88 501.01 236.42 512.8 235.12 523.92 236.76 534.8 240.73 544.79 248.11 553.61 258.28 561.9 270.29 568.75 283.93 573.89 298.33 578.29 313.1 580.84 327.83 581.42 342.15 581.32 356.25 579.4 369.92 575.74 383.14 573.84 389.71 571.59 396.2 569.02 402.62 566.5 409.03 563.75 415.38 560.78 421.66 557.97 427.93 555.08 433.97 552.17 439.76 549.48 445.53 546.8 451.01 544.14 456.18 539.66 466.33 535.29 474.92 531.06 481.61 526.12 489.8 515.85 496.98 509.54 499.27 505.26 503.29 499.98 509.56 493.65 518.97 487.28 532.2 479.78 548.23 471.21 565.55 462.53 582.43 452.81 596 442.15 603.58 436.79 604.98 431.22 604.4 425.43 601.85 419.63 597.79 413.64 592.11 407.45 585.09 401.27 577.54 395.05 569.69 388.82 561.99 382.6 555.03 376.37 548.95 370.16 544 357.77 538.7 345.46 538.57 333.43 542.3 321.47 549.4 309.81 556.19 298.65 560.62 287.63 562.86 277.17 560.61 267.47 554.1 258.02 544.61 249.43 532.05 241.9 517.69 234.74 502.23 228.75 486.39 224.09 470.94 219.88 455.54 217.07 440.87 215.79 427.14 215.31 420.33 215.21 413.72 215.5 407.32 215.88 400.95 216.64 394.76 217.78 388.79 219.77 380 225.4 364.12 228.95 357.04 233.85 347.81 239.7 339.97 246.33 333.47 252.75 326.76 259.87 321.04 267.55 315.92 274.94 309.75 282.89 303.26 291.34 295.87 299.49 286.43 308.19 275.57 317.39 263.46 326.38 250.19 335.96 237.15 346.1 225.74 356.1 216.54 366.75 211.29 378.03 210.83 383.64 211.94 389.42 214.12 395.37 217.25 401.31 220.8 407.42 224.89 413.69 229.29" stroke-dasharray="6 9" transform="rotate(40.400000000000006, 400, 400)" opacity="0.47"></path><path d="M416.77 240.41C428.62 247.78 440.49 253.67 452.24 257.26 464 257.4 475.61 255.75 486.87 253.3 498.06 249.92 508.8 248 518.84 248.37 528.63 250.43 537.55 255.53 545.32 263.31 552.62 272.91 558.58 284.41 562.96 297.06 566.72 310.45 568.82 324.19 569.15 337.8 568.94 351.47 567.11 364.8 563.74 377.59 560.26 390.36 555.63 402.65 550.06 414.28 545.04 425.92 539.75 436.28 534.44 445.24 530.04 454.03 525.67 461.22 521.36 466.68 516.1 473.8 505.24 482.8 498.85 488.18 494.59 494.51 489.46 503.1 483.45 514.37 477.43 528.48 470.42 544.37 462.45 560.53 454.41 575.5 445.41 586.91 435.54 592.66 425.62 592.78 414.87 586.2 403.39 573.97 391.91 559.92 380.28 546.04 368.7 534.88 357.15 528.63 345.69 526.83 334.47 528.67 323.33 534.03 312.49 539.88 302.12 544.46 291.9 547.96 282.22 547.99 273.27 544.38 264.57 538.27 256.68 529.05 249.8 517.64 243.27 504.88 237.82 491.14 233.63 477.21 229.85 463.03 227.36 449.21 226.3 436.11 225.61 423.06 226.32 410.76 228.5 399.38 230.92 387.99 234.58 378 239.27 369.33 243.98 360.57 249.6 353.01 255.96 346.48 262.15 339.54 269.02 333.17 276.44 326.96 283.6 319.61 291.31 311.67 299.48 302.78 307.4 292.22 315.84 280.58 324.73 268.22 333.42 255.39 342.66 243.33 352.39 233.28 362.01 225.57 372.2 221.62 382.94 222.03 393.62 225.37 404.91 231.92 416.76 240.4" stroke-dasharray="8 7" transform="rotate(44.44, 400, 400)" opacity="0.22"></path><path d="M419.26 251.53C430.38 258.63 441.46 264.51 452.36 268.45 463.25 269.32 473.92 268.48 484.21 266.68 494.4 263.64 504.11 261.48 513.1 260.97 521.86 261.55 529.75 264.68 536.55 270.22 542.94 277.37 548.09 286.52 551.8 297.06 555 308.51 556.71 320.66 556.85 332.99 556.58 345.59 554.86 358.02 551.78 369.99 548.63 382.01 544.43 393.49 539.34 404.19 534.73 414.89 529.79 424.23 524.75 432.17 520.47 440.03 516.15 446.45 511.82 451.49 508.22 456.62 504.46 460.74 500.48 464.28 496.99 468.8 493.04 473.76 488.56 479.86 484.3 488.22 479.31 498.58 473.55 511.01 467.83 525.32 461.25 540.51 453.82 555.13 446.36 568.07 438.03 577.4 428.91 581.5 419.75 580.75 409.82 574.22 399.21 562.86 388.6 549.91 377.85 536.89 367.13 525.94 356.45 518.97 345.84 515.74 335.46 515.81 325.18 519.32 315.17 523.88 305.62 528.01 296.22 531.98 287.34 533.47 279.16 532.07 271.21 528.79 264.03 522.63 257.8 514.17 251.88 504.36 246.98 493.15 243.25 481.27 239.87 468.93 237.7 456.53 236.84 444.49 236.32 432.42 237.09 420.87 239.22 410.08 241.57 399.29 245.07 389.69 249.55 381.22 254.05 372.61 259.41 364.89 265.48 357.86 271.43 350.33 278.02 343 285.13 335.54 292.04 327.01 299.47 317.81 307.34 307.77 314.99 296.53 323.13 284.61 331.68 272.51 340.06 260.52 348.93 249.72 358.24 241.17 367.44 234.94 377.16 232.22 387.34 233.4 397.48 237.03 408.14 243.44 419.26 251.53" stroke-dasharray="9 11" transform="rotate(48.48, 400, 400)" opacity="0.53"></path><path d="M421.08 262.65C431.45 269.45 441.71 275.28 451.74 279.49 461.75 281.02 471.49 281 480.8 279.94 490.02 277.45 498.71 275.38 506.7 274.4 514.47 273.95 521.41 275.52 527.32 279.15 532.88 284.04 537.3 290.86 540.43 299.17 543.15 308.4 544.54 318.57 544.54 329.21 544.23 340.23 542.65 351.32 539.85 362.13 537.03 373.05 533.24 383.52 528.62 393.29 524.4 403.06 519.82 411.62 515.07 418.95 510.96 426.3 506.73 432.52 502.43 437.78 498.75 443.34 494.9 448.4 490.83 453.39 487.2 459.46 483.17 466.28 478.69 474.33 474.44 484.2 469.56 495.66 464.04 508.52 458.58 522.4 452.38 536.4 445.45 549.23 438.5 560.11 430.8 567.46 422.38 570.1 413.94 568.63 404.81 562.25 395.05 551.74 385.3 539.88 375.42 527.77 365.57 517.15 355.76 509.71 346.03 505.3 336.52 503.77 327.1 505.45 317.95 508.48 309.24 511.7 300.67 515.44 292.6 517.6 285.18 517.63 277.98 516.46 271.51 512.81 265.92 506.99 260.61 500.01 256.24 491.41 252.95 481.79 249.97 471.64 248.09 461.02 247.43 450.35 247.05 439.58 247.87 429.01 249.94 418.86 252.21 408.71 255.54 399.42 259.78 390.92 264.05 382.28 269.14 374.19 274.9 366.44 280.56 358.2 286.84 349.9 293.62 341.3 300.25 331.83 307.36 321.74 314.89 311.05 322.24 299.64 330.04 287.98 338.21 276.62 346.25 265.81 354.72 256.48 363.57 249.49 372.34 244.7 381.55 243.11 391.14 244.93 400.71 248.76 410.71 254.98 421.08 262.65" stroke-dasharray="2 3" transform="rotate(52.52, 400, 400)" opacity="0.72"></path><path d="M422.17 273.77C431.77 280.23 441.19 285.95 450.34 290.36 459.47 292.48 468.28 293.22 476.64 292.95 484.91 291.18 492.64 289.47 499.67 288.4 509.55 287.64 524.38 295.41 528.89 303.97 531.19 310.96 532.33 319.03 532.24 327.78 531.93 336.93 530.49 346.41 527.98 355.86 525.46 365.43 522.07 374.78 517.9 383.67 514.07 392.56 509.84 400.53 505.4 407.61 501.49 414.75 497.39 421.17 493.18 427.06 489.49 433.35 485.6 439.57 481.51 446.05 477.8 453.54 473.73 461.87 469.29 471.29 465.05 482.03 460.3 493.88 455 506.47 449.78 519.39 443.93 531.84 437.45 542.71 430.99 551.55 423.86 557.09 416.12 558.48 408.36 556.44 399.99 550.28 391.07 540.62 382.15 529.83 373.14 518.64 364.16 508.49 355.22 500.8 346.37 495.5 337.73 492.61 329.18 492.57 320.89 493.97 313.02 495.98 305.29 498.95 298.02 501.06 291.38 501.76 284.92 501.87 279.14 500.03 274.18 496.3 269.46 491.7 265.6 485.49 262.73 478.04 260.13 470.11 258.54 461.38 258.05 452.23 257.81 442.95 258.66 433.49 260.66 424.05 262.83 414.61 265.98 405.62 269.97 397.05 274 388.36 278.79 379.88 284.21 371.46 289.56 362.65 295.5 353.6 301.92 344.2 308.21 334.22 314.98 323.77 322.12 313.01 329.13 301.98 336.55 291.08 344.31 280.86 351.96 271.49 359.99 263.74 368.35 258.31 376.64 254.87 385.31 254.27 394.3 256.62 403.26 260.57 412.57 266.54 422.17 273.77" stroke-dasharray="1 10" transform="rotate(56.56, 400, 400)" opacity="0.37"></path><path d="M422.49 284.89C431.29 290.99 439.88 296.54 448.15 301.07 456.4 303.68 464.3 305.12 471.73 305.63 479.08 304.67 485.9 303.54 492.04 302.7 500.66 301.53 513.41 305.79 517.21 311.71 519.17 316.68 520.09 322.77 519.96 329.67 519.66 336.93 518.38 344.72 516.14 352.75 513.93 360.89 510.92 369.09 507.18 377.15 503.72 385.22 499.86 392.76 495.75 399.78 492.05 406.9 488.14 413.7 484.07 420.34 480.43 427.38 476.57 434.65 472.51 442.35 468.77 450.86 464.72 460.15 460.34 470.26 456.16 481.18 451.54 492.73 446.47 504.44 441.48 515.97 435.96 526.61 429.93 535.49 423.91 542.4 417.33 546.31 410.24 546.64 403.13 544.19 395.5 538.3 387.4 529.5 379.29 519.75 371.13 509.52 363.02 499.94 354.95 492.22 346.96 486.3 339.2 482.31 331.51 480.75 324.09 480.58 317.06 481.2 306.91 483.79 289.5 485.45 282.6 482.73 278.45 479.89 275.09 475.57 272.62 469.98 270.38 464.02 269.05 457.07 268.72 449.4 268.6 441.62 269.47 433.32 271.38 424.66 273.44 416 276.39 407.39 280.11 398.87 283.88 390.26 288.35 381.57 293.41 372.77 298.43 363.69 304 354.32 310.01 344.65 315.95 334.68 322.31 324.45 329.03 314.19 335.66 304.04 342.65 294.32 349.95 285.54 357.17 277.75 364.72 271.63 372.55 267.69 380.33 265.48 388.42 265.73 396.76 268.47 405.09 272.46 413.69 278.13 422.49 284.89" stroke-dasharray="6 8" transform="rotate(60.599999999999994, 400, 400)" opacity="0.85"></path><path d="M422.03 296C430.03 301.71 437.77 307.04 445.17 311.6 452.56 314.59 459.57 316.64 466.11 317.87 475.57 317.55 491.34 315.98 497.32 316.5 502.24 318.24 507.48 327.82 507.7 335.33 507.43 340.88 506.31 347.1 504.35 353.8 502.42 360.58 499.78 367.69 496.46 375 493.37 382.31 489.87 389.47 486.1 396.49 482.65 403.59 478.96 410.72 475.08 417.97 471.55 425.54 467.78 433.5 463.82 441.93 460.13 450.89 456.15 460.47 451.89 470.55 447.8 480.99 443.34 491.63 438.51 502 433.76 511.84 428.58 520.57 422.97 527.48 417.39 532.62 411.34 535.12 404.86 534.6 398.39 531.88 391.47 526.34 384.16 518.38 376.85 509.65 369.52 500.39 362.26 491.49 355.03 483.93 347.91 477.66 341.02 472.87 334.18 470.05 327.6 468.46 321.39 467.71 312.44 468.48 297.19 469.15 291.19 467.32 286.15 464 280.17 451.11 279.44 442.02 279.42 435.58 280.29 428.39 282.09 420.57 284.03 412.74 286.78 404.66 290.22 396.4 293.71 388.11 297.84 379.55 302.51 370.78 307.17 361.88 312.34 352.69 317.92 343.33 323.44 333.91 329.37 324.45 335.63 315.22 341.82 306.33 348.34 298.09 355.13 290.94 361.87 284.79 368.9 280.25 376.15 277.68 383.38 276.54 390.85 277.48 398.52 280.49 406.17 284.42 414.04 289.75 422.03 296" stroke-dasharray="9 7" transform="rotate(64.64, 400, 400)" opacity="0.46"></path><path d="M420.81 307.12C427.98 312.4 434.88 317.45 441.44 321.95 451.05 326.48 468.07 330.48 475.22 330.92 490.79 335.14 494.79 351.23 492.62 359.25 490.96 364.85 488.66 370.99 485.74 377.6 483 384.2 479.87 390.97 476.45 397.87 473.28 404.85 469.84 412.07 466.21 419.57 462.83 427.29 459.23 435.43 455.42 443.96 451.84 452.77 447.99 461.97 443.9 471.36 439.95 480.78 435.7 490.05 431.14 498.75 426.66 506.77 421.82 513.58 416.64 518.66 411.49 522.22 405.96 523.54 400.09 522.37 394.23 519.52 388 514.38 381.47 507.26 374.94 499.53 368.42 491.25 362 483.1 355.59 475.89 349.32 469.53 343.26 464.25 334.37 459.1 318.29 454.59 311.37 453.64 300.4 450.9 290.7 438.54 290.2 431.05 290.27 425.7 291.12 419.52 292.81 412.55 294.61 405.59 297.14 398.2 300.28 390.5 303.47 382.8 307.25 374.76 311.52 366.49 315.79 358.21 320.52 349.73 325.63 341.22 330.72 332.83 336.17 324.58 341.92 316.75 347.62 309.39 353.63 302.8 359.87 297.32 366.08 292.77 372.54 289.68 379.17 288.3 385.8 288.05 392.62 289.51 399.58 292.65 406.53 296.45 413.64 301.39 420.81 307.12" stroke-dasharray="9 2" transform="rotate(68.68, 400, 400)" opacity="0.71"></path><path d="M418.87 318.24C431.57 327.23 443.1 335.08 452.98 340.78 466.59 343.25 482.26 348.46 483.34 356.64 482.98 363.22 480.2 372.59 475.02 384.46 470.4 396.33 464.33 409.71 457.43 424.16 451.32 439.07 444.22 455.39 436.38 471.86 429.01 487.54 420.49 500.92 410.99 509 401.6 512.22 390.98 507.86 379.42 496.14 367.87 482.54 356.52 468.3 346 456.37 335.62 448.82 326.27 443.85 318.61 440.07 311.3 438.42 305.89 435.17 302.93 429.28 300.45 423.41 300.51 414.34 303.53 402.15 306.91 389.96 312.77 375.97 320.43 361.25 328.13 346.81 337.5 332.27 347.91 319.4 358.24 308.49 369.66 301.29 381.63 299.56 393.57 301.15 406.17 307.81 418.87 318.24" stroke-dasharray="5 11" transform="rotate(72.72, 400, 400)" opacity="0.98"></path><path d="M416.27 329.36C427.31 337.53 437.23 345.15 445.61 351.31 457.16 355.77 470.32 363.07 471.25 370.3 471.02 375.75 468.71 383.74 464.31 394.28 460.31 404.82 454.94 417.05 448.74 430.27 443.11 443.59 436.54 457.73 429.3 471.27 422.43 483.62 414.62 493.42 406.05 498.52 397.58 499.9 388.17 495.33 378.09 485.02 368.02 473.29 358.25 460.58 349.3 449.16 340.45 440.72 332.58 434.12 326.2 428.73 320.07 425.28 315.61 421.1 313.28 415.31 311.29 409.78 311.5 401.83 314.25 391.34 317.28 380.84 322.49 368.92 329.26 356.63 336.1 344.74 344.41 333.27 353.64 323.72 362.85 315.9 372.99 311.43 383.57 311.45 394.15 313.77 405.22 320.06 416.27 329.36" stroke-dasharray="0 7" transform="rotate(76.76, 400, 400)" opacity="0.40"></path><path d="M413.11 340.48C422.51 347.74 430.86 354.9 437.85 361.19 447.48 367.15 458.42 377.01 459.24 384.04 459.12 389 457.26 396.01 453.59 405.2 450.21 414.38 445.57 424.97 440.12 436.2 435.07 447.32 429.16 458.65 422.65 468.92 416.41 477.98 409.4 484.57 401.83 487.23 394.33 487.27 386.14 482.77 377.52 473.91 368.89 464 360.66 452.98 353.2 442.5 345.81 433.89 339.32 426.4 334.13 419.91 329.12 414.94 325.53 409.78 323.74 403.82 322.2 398.21 322.51 391.04 324.97 382.17 327.64 373.3 332.15 363.64 338.01 354.06 343.93 344.89 351.13 336.51 359.13 330.07 367.12 324.96 375.92 322.69 385.06 323.93 394.2 326.63 403.71 332.36 413.11 340.48" stroke-dasharray="5 6" transform="rotate(80.80000000000001, 400, 400)" opacity="0.42"></path><path d="M409.49 351.6C417.26 357.87 424.1 364.33 429.79 370.38 437.64 377.21 446.57 389.21 447.31 396.32 447.3 401.12 445.84 407.35 442.87 415.12 440.1 422.88 436.2 431.5 431.57 440.31 427.19 448.92 422.04 457.26 416.38 464.34 410.9 470.43 404.8 474.35 398.3 475.21 391.85 474.36 384.91 470.18 377.72 462.79 370.53 454.68 363.77 445.45 357.73 436.28 351.73 428.16 346.52 420.56 342.43 413.66 338.45 407.79 335.65 401.97 334.34 395.95 333.19 390.23 333.56 383.73 335.69 376.4 337.97 369.08 341.77 361.64 346.68 354.71 351.66 348.09 357.7 342.49 364.41 338.66 371.14 335.7 378.52 335.01 386.16 336.96 393.81 339.71 401.72 344.73 409.49 351.6" stroke-dasharray="6 7" transform="rotate(84.84, 400, 400)" opacity="0.69"></path><path d="M405.55 362.72C417.86 372.38 427.07 383 431.85 392.7 436.52 400 436.87 409.6 432.15 422.16 427.93 434.71 419.97 447.98 410.46 457.26 401.39 463.91 390.23 462.7 378.7 451.67 367.16 438.85 357.36 423.39 351.09 409.78 345.08 398.43 342.99 386.82 346.4 375.13 350.23 363.43 358.8 353.78 369.52 349.46 380.35 346.97 393.23 351.49 405.55 362.72" stroke-dasharray="10 4" transform="rotate(88.88, 400, 400)" opacity="0.30"></path><path d="M401.41 373.84C410.55 381.5 417.36 390.62 420.93 399.36 424.47 406.84 424.85 415.52 421.43 424.97 418.29 434.43 412.19 442.86 404.84 447.67 397.72 451.07 389.1 449.01 380.41 440.55 371.72 431.09 364.56 419.08 360.12 407.85 355.81 397.58 354.44 387.41 357.12 378.59 360.04 369.77 366.49 363.86 374.52 362.22 382.64 361.32 392.26 365.27 401.41 373.84" stroke-dasharray="2 10" transform="rotate(92.92, 400, 400)" opacity="0.70"></path><path d="M397.22 384.96C409.29 394.96 415.21 410.45 410.71 423.03 406.69 435.6 394.46 440.12 382.81 429.43 371.15 417.01 364.22 398.03 367.84 386.13 371.89 374.22 385.14 373.33 397.22 384.96" stroke-dasharray="8 11" transform="rotate(96.96, 400, 400)" opacity="0.97"></path></g></svg>