<svg xmlns="http://www.w3.org/2000/svg" version="1.1" xmlns:xlink="http://www.w3.org/1999/xlink" xmlns:svgjs="http://svgjs.dev/svgjs" viewBox="0 0 800 800" opacity="1"><defs><linearGradient x1="50%" y1="0%" x2="50%" y2="100%" id="ccchaos-grad"><stop stop-color="hsl(206, 75%, 49%)" stop-opacity="1" offset="0%"></stop><stop stop-color="hsl(331, 90%, 56%)" stop-opacity="1" offset="100%"></stop></linearGradient></defs><g stroke-width="4.5" stroke="url(#ccchaos-grad)" fill="none" stroke-linecap="round"><path d="M406.94 118.1C416.97 123.05 427.14 127.08 437.42 129.71 447.71 130.27 458.1 129.34 468.57 127.3 479.04 124.19 489.54 121.24 499.99 119.11 510.38 117.9 520.64 118.58 530.66 121.36 540.46 125.89 549.86 132.41 558.71 140.53 567.15 149.57 574.85 159.29 581.66 169.18 587.87 178.59 593.07 187.39 597.18 195.35 601.96 204.96 606.61 218.44 607.6 223.53 609.43 228.09 618.1 239.83 626.4 247.76 634.02 253.75 642.86 260.56 652.69 268.11 663.37 276.07 674.16 284.64 684.45 293.66 693.92 302.97 701.69 312.58 707.16 322.35 710.37 332.26 710.7 342.22 708.1 352.12 703.37 362.06 696.42 371.87 687.89 381.46 679.18 391.06 670.72 400.2 663.25 408.89 657.7 417.6 654.03 425.89 652.35 433.84 653.01 441.9 655.23 449.76 658.53 457.54 662.92 465.64 667.23 473.91 670.88 482.52 673.94 491.75 675.39 501.61 674.97 512.24 673.01 523.68 668.98 536 663.01 549.17 655.61 562.9 646.69 577.12 636.61 591.47 625.85 605.43 614.53 618.61 602.98 630.38 591.5 640.34 580.22 647.91 569.29 652.62 558.87 654.76 548.93 653.96 539.47 650.5 530.59 645.72 522.1 639.79 513.91 633.83 506.15 629.61 498.52 627.57 490.92 628.66 483.56 633.78 476.07 642.6 468.38 654.65 460.79 669.1 452.9 684.33 444.68 698.56 436.48 710.32 427.91 717.83 418.98 719.98 410.04 716.94 400.72 708.65 391.06 696.28 381.39 682.33 371.63 668.59 361.82 657.08 352.03 649.59 342.24 646.6 332.5 648.1 322.82 653.98 313.25 662.49 303.84 672.02 294.55 681.62 285.5 689.08 276.74 693.23 268.16 693.89 259.94 690.21 252.14 682.5 244.56 671.6 237.44 658.13 230.83 643.18 224.41 627.79 218.47 612.88 213.01 599.2 207.64 587.32 202.66 577.49 198.03 569.69 191.01 562.07 177.26 554.95 170.17 552.82 165 551.53 159.78 549.46 154.54 546.43 148.96 542.99 143.47 538.41 138.2 532.73 132.87 526.55 127.99 519.39 123.68 511.4 119.67 503.07 116.44 494.12 114.09 484.71 112.23 475.14 111.29 465.27 111.26 455.22 111.59 445.13 112.66 434.94 114.36 424.71 116.03 414.47 118 404.42 120.14 394.55 121.87 384.65 123.61 374.85 125.34 365.12 126.59 355.26 127.89 345.36 129.31 335.34 130.48 325.1 131.99 314.65 133.93 303.96 135.98 293 138.68 281.78 142.08 270.35 145.86 258.81 150.43 247.22 155.78 235.75 161.55 224.58 168.04 213.89 175.15 203.96 182.55 194.87 190.43 186.93 198.67 180.37 206.98 174.96 215.51 171.02 224.18 168.5 232.72 166.75 241.32 165.94 249.94 165.7 258.34 165.09 266.76 164.18 275.18 162.54 283.38 159.39 291.64 155.01 299.97 149.35 308.13 142.24 316.43 134.41 324.91 126.39 333.26 118.5 341.84 111.73 350.67 106.71 359.44 103.52 368.5 102.76 377.87 104.44 387.21 107.72 396.9 112.52 406.93 118.1" stroke-dasharray="1 8" transform="rotate(0, 400, 400)"></path><path d="M411.76 129.22C421.52 134.13 431.35 138.21 441.23 140.98 451.11 141.79 461.02 141.15 470.92 139.39 480.8 136.47 490.61 133.52 500.28 131.16 509.84 129.46 519.16 129.41 528.13 131.25 536.86 134.73 545.1 140.19 552.73 147.34 559.95 155.61 566.41 164.85 572.02 174.56 577.13 184.15 581.32 193.46 584.59 202.18 587.47 209.91 589.56 216.78 590.99 222.83 593.05 229.98 597.89 241.17 602.24 246.45 606.71 249.94 612.3 253.95 619.06 258.59 627.2 263.44 636.32 269 646.14 275.26 656.51 281.81 666.74 288.99 676.29 296.71 684.9 304.66 691.79 313.03 696.47 321.7 699.05 330.51 698.98 339.51 696.23 348.61 691.59 357.75 684.95 366.92 676.86 376.08 668.61 385.23 660.54 394.13 653.3 402.79 647.76 411.48 643.87 420 641.76 428.4 641.79 436.95 643.31 445.52 645.93 454.25 649.7 463.3 653.59 472.7 657.09 482.57 660.27 492.96 662.16 503.99 662.5 515.7 661.56 527.93 658.75 540.78 654.14 554.1 648.17 567.5 640.66 580.9 631.89 593.88 622.3 606 611.94 616.88 601.13 625.99 590.15 633.17 579.13 637.94 568.25 640.03 557.66 640.02 547.4 637.64 537.52 633.34 528.1 628.47 519.03 623.24 510.29 618.63 501.93 616.18 493.78 616.15 485.75 619.21 477.98 625.95 470.19 635.87 462.33 648.38 454.58 662.62 446.67 677.08 438.54 690.17 430.45 700.66 422.09 707.04 413.46 708.42 404.82 705.07 395.9 696.97 386.71 685.16 377.51 671.9 368.27 658.75 359.04 647.49 349.83 639.77 340.66 636.07 331.59 636.48 322.58 641.06 313.71 648.34 305.05 656.99 296.5 666.24 288.2 674.04 280.23 679.26 272.41 681.65 264.96 680.17 257.93 674.9 251.05 666.47 244.62 655.15 238.64 641.86 232.77 627.49 227.33 612.84 222.29 598.7 217.24 585.66 212.5 574.13 208.03 564.31 203.36 556.39 198.83 550.11 194.37 545.19 187.14 540.33 171.87 533.54 163.87 529.74 158.25 526.97 152.77 523.35 147.54 518.83 142.32 514.01 137.57 508.26 133.41 501.68 129.59 494.82 126.55 487.23 124.39 479.03 122.71 470.68 121.92 461.85 122.02 452.64 122.47 443.37 123.63 433.8 125.39 423.97 127.12 414.13 129.15 404.28 131.32 394.42 133.1 384.53 134.89 374.59 136.64 364.57 137.91 354.46 139.21 344.21 140.58 333.78 141.67 323.22 143.04 312.45 144.77 301.49 146.56 290.44 148.93 279.25 151.93 268.02 155.27 256.92 159.35 246 164.18 235.45 169.42 225.42 175.38 216.09 181.98 207.7 188.91 200.22 196.37 193.95 204.25 189.02 212.27 185.06 220.58 182.36 229.09 180.81 237.57 179.66 246.15 179.09 254.79 178.74 263.29 177.71 271.81 176.13 280.35 173.66 288.71 169.68 297.11 164.52 305.56 158.23 313.85 150.75 322.24 142.8 330.75 134.91 339.15 127.38 347.73 121.09 356.5 116.61 365.2 113.92 374.15 113.57 383.36 115.51 392.53 118.91 402 123.7 411.75 129.22" stroke-dasharray="1 3" transform="rotate(4.04, 400, 400)"></path><path d="M415.21 140.34C424.65 145.21 434.09 149.31 443.5 152.21 452.9 153.26 462.25 152.93 471.5 151.46 480.71 148.78 489.75 145.91 498.56 143.41 507.24 141.33 515.58 140.63 523.5 141.62 531.18 144.07 538.32 148.43 544.81 154.53 550.95 161.85 556.37 170.36 560.99 179.62 565.25 189.09 568.73 198.59 571.45 207.8 574 216.3 575.97 224.13 577.53 231.23 580.19 240.03 587.37 253.71 593.16 259.53 598.53 263.06 604.89 266.86 612.25 271.06 620.75 275.25 629.97 280 639.62 285.33 649.55 290.81 659.14 296.88 667.9 303.51 675.65 310.29 681.7 317.56 685.63 325.24 687.64 333.01 687.21 341.11 684.35 349.47 679.82 357.87 673.48 366.47 665.83 375.24 658.03 384.02 650.34 392.76 643.35 401.48 637.85 410.23 633.78 419.02 631.29 427.91 630.77 436.94 631.63 446.18 633.57 455.72 636.7 465.54 640.11 475.79 643.33 486.52 646.49 497.61 648.65 509.22 649.55 521.31 649.44 533.61 647.69 546.19 644.31 558.82 639.69 571.14 633.57 582.99 626.14 593.99 617.83 603.83 608.61 612.14 598.74 618.52 588.53 623.09 578.06 625.39 567.53 625.38 557.1 623.82 546.82 620.53 536.79 616.02 527.07 611.64 517.64 607.54 508.51 604.56 499.7 603.99 491.11 605.91 482.71 610.75 474.54 618.83 466.45 629.56 458.38 642.25 450.44 656.08 442.43 669.64 434.32 681.55 426.26 690.8 418.04 696.12 409.65 696.79 401.26 693.2 392.68 685.3 383.91 674.04 375.14 661.47 366.4 648.91 357.73 637.93 349.08 630.06 340.52 625.73 332.11 625.15 323.75 628.47 315.57 634.51 307.64 642.16 299.79 650.84 292.22 658.69 284.99 664.62 277.87 668.38 271.11 668.83 264.75 665.82 258.49 659.83 252.62 650.84 247.15 639.55 241.73 626.72 236.65 612.98 231.89 599.09 227.06 585.61 222.45 573.06 218.02 561.76 213.35 551.95 208.75 543.61 204.17 536.63 199.23 531.08 194.25 526.51 189.21 522.58 183.8 519.49 178.37 516.53 172.97 513.41 167.35 510.53 161.91 507.15 156.76 503.14 151.68 499.04 147.09 494.18 143.13 488.56 139.51 482.78 136.68 476.26 134.71 469.07 133.21 461.77 132.58 453.87 132.8 445.44 133.36 436.97 134.6 428.03 136.42 418.66 138.21 409.3 140.27 399.74 142.48 390.02 144.31 380.3 146.14 370.39 147.93 360.32 149.23 350.21 150.54 339.91 151.89 329.43 152.93 318.93 154.18 308.27 155.75 297.52 157.31 286.84 159.38 276.18 162.02 265.68 164.93 255.48 168.53 245.67 172.84 236.44 177.53 227.84 182.93 220.08 188.98 213.36 195.37 207.5 202.33 202.8 209.75 199.31 217.38 196.54 225.35 194.77 233.59 193.82 241.87 192.93 250.32 192.27 258.87 191.52 267.34 189.86 275.88 187.49 284.45 184.14 292.9 179.35 301.38 173.49 309.89 166.69 318.28 158.97 326.74 151.02 335.28 143.37 343.73 136.27 352.3 130.52 361.01 126.59 369.67 124.41 378.5 124.44 387.53 126.62 396.54 130.11 405.76 134.9 415.2 140.34" stroke-dasharray="9 10" transform="rotate(8.08, 400, 400)"></path><path d="M416.88 151.46C425.95 156.27 434.95 160.39 443.84 163.4 452.72 164.68 461.46 164.66 470 163.51 478.5 161.11 486.75 158.38 494.68 155.83 502.48 153.47 509.89 152.24 516.82 152.46 523.54 153.96 529.7 157.23 535.23 162.2 540.49 168.46 545.08 176.04 548.99 184.6 552.67 193.64 555.73 203.01 558.22 212.39 560.7 221.38 562.82 229.92 564.74 237.89 567.04 245.03 569.46 251.53 572.21 257.45 575.8 262.57 580.03 267.31 585.04 271.83 591.15 275.85 598.12 279.91 605.9 284.15 614.56 288.19 623.71 292.6 633.05 297.45 642.45 302.29 651.34 307.64 659.28 313.5 666.18 319.42 671.42 325.84 674.66 332.73 676.14 339.67 675.4 347.03 672.46 354.78 668.06 362.54 662.03 370.66 654.8 379.12 647.44 387.58 640.14 396.2 633.4 404.96 627.97 413.76 623.77 422.77 620.97 432.02 619.93 441.38 620.18 451.06 621.46 461.1 623.95 471.33 626.82 481.96 629.68 492.99 632.68 504.18 634.95 515.71 636.22 527.44 636.75 539.08 635.88 550.66 633.56 561.9 630.17 572.54 625.35 582.36 619.26 591.01 612.27 598.41 604.28 604.17 595.52 608.02 586.28 610.31 576.61 610.66 566.69 609.16 556.71 606.71 546.7 603.15 536.8 599.04 527.07 595.61 517.53 592.96 508.22 591.79 499.15 593.09 490.29 596.82 481.62 603.2 473.16 612.34 464.82 623.57 456.57 636.2 448.45 649.43 440.35 662 432.23 672.7 424.18 680.75 416.05 685.07 407.85 685.11 399.67 681.3 391.38 673.63 383 662.92 374.61 651.02 366.33 639.05 358.19 628.4 350.05 620.43 342.06 615.58 334.27 614.09 326.52 616.23 318.98 621.03 311.71 627.6 304.5 635.52 297.59 643.14 291 649.45 284.49 654.22 278.31 656.25 272.5 655.26 266.73 651.57 261.3 644.96 256.22 635.87 251.1 624.97 246.26 612.67 241.66 599.66 236.93 586.47 232.34 573.61 227.87 561.49 223.13 550.36 218.4 540.4 213.67 531.63 208.58 524.14 203.44 517.68 198.26 512.05 192.76 507.37 187.26 503.11 181.84 499.04 176.26 495.42 170.9 491.64 165.88 487.51 160.97 483.49 156.58 478.94 152.82 473.79 149.44 468.59 146.83 462.75 145.06 456.26 143.75 449.71 143.27 442.55 143.62 434.79 144.28 427 145.58 418.66 147.45 409.8 149.28 400.94 151.38 391.79 153.62 382.39 155.49 373 157.37 363.37 159.19 353.54 160.55 343.73 161.88 333.74 163.22 323.62 164.24 313.56 165.42 303.45 166.85 293.38 168.23 283.5 170.04 273.81 172.35 264.45 174.86 255.52 178.01 247.12 181.81 239.44 185.96 232.41 190.78 226.27 196.24 221.16 202.05 216.78 208.44 213.42 215.32 211.06 222.46 209.14 229.99 207.92 237.84 207.19 245.79 206.22 253.97 205.19 262.31 203.8 270.64 201.38 279.07 198.13 287.56 193.92 295.98 188.38 304.45 181.92 312.95 174.75 321.37 166.93 329.84 159.12 338.35 151.81 346.8 145.21 355.33 140.03 363.95 136.68 372.52 134.99 381.22 135.39 390.04 137.77 398.84 141.35 407.79 146.1 416.87 151.46" stroke-dasharray="4 9" transform="rotate(12.12, 400, 400)"></path><path d="M416.57 162.58C425.24 167.33 433.77 171.44 442.1 174.55 450.42 176.06 458.53 176.33 466.37 175.51 474.16 173.43 481.64 170.91 488.75 168.4 495.74 165.87 502.3 164.23 508.37 163.79 514.27 164.41 519.63 166.65 524.42 170.5 529.02 175.61 533.05 182.12 536.52 189.76 539.89 198.09 542.8 207.02 545.32 216.23 547.97 225.35 550.46 234.29 552.9 242.87 555.83 250.85 559.01 258.29 562.59 265.2 567 271.37 572.04 277.1 577.79 282.49 584.48 287.31 591.88 291.99 599.89 296.67 608.55 301.01 617.47 305.54 626.37 310.34 635.15 315 643.29 320.05 650.41 325.53 656.49 330.97 660.96 336.88 663.56 343.26 664.56 349.63 663.55 356.47 660.57 363.76 656.31 371.05 650.58 378.79 643.77 386.98 636.84 395.17 629.92 403.63 623.46 412.36 618.12 421.12 613.84 430.18 610.76 439.54 609.28 448.98 608.96 458.76 609.63 468.85 611.47 479.03 613.77 489.52 616.2 500.23 618.93 510.92 621.16 521.7 622.64 532.41 623.61 542.8 623.42 552.81 621.99 562.18 619.67 570.78 616.04 578.33 611.19 584.57 605.5 589.61 598.77 593.06 591.21 594.79 583.09 595.34 574.4 594.34 565.31 592.03 556.02 589.32 546.56 586.09 537.06 582.87 527.59 580.75 518.2 579.75 508.95 580.42 499.85 583.5 490.91 588.83 482.15 596.47 473.54 606.35 465.07 617.81 456.73 630.14 448.5 642.61 440.34 654.11 432.24 663.6 424.2 670.5 416.17 673.89 408.15 673.36 400.14 669.4 392.11 661.96 384.07 651.81 376.03 640.56 368.16 629.18 360.49 618.88 352.81 610.89 345.34 605.61 338.1 603.32 330.88 604.35 323.9 607.93 317.21 613.37 310.55 620.39 304.18 627.54 298.12 633.93 289.23 640.96 273.01 639.51 265.6 630.52 260.66 621.77 255.94 611.32 251.39 599.72 246.65 587.46 242.01 574.98 237.43 562.74 232.56 550.99 227.68 540 222.78 529.93 217.54 520.84 212.27 512.71 206.97 505.44 201.4 499.07 195.88 493.31 190.48 487.96 184.99 483.19 179.76 478.51 174.9 473.77 170.2 469.29 166.04 464.52 162.53 459.36 159.39 454.27 157.01 448.68 155.44 442.56 154.32 436.43 154 429.74 154.46 422.49 155.21 415.23 156.58 407.42 158.48 399.07 160.35 390.73 162.47 382.08 164.73 373.17 166.65 364.28 168.56 355.15 170.42 345.86 171.83 336.63 173.21 327.28 174.57 317.89 175.59 308.64 176.73 299.45 178.07 290.44 179.29 281.7 180.89 273.28 182.91 265.33 185.07 257.84 187.8 250.99 191.12 244.9 194.73 239.4 198.99 234.77 203.85 231.06 209.05 227.88 214.82 225.52 221.11 223.92 227.67 222.46 234.67 221.41 242.02 220.55 249.53 219.19 257.32 217.55 265.31 215.36 273.36 212.09 281.55 207.97 289.83 202.94 298.1 196.77 306.44 189.86 314.82 182.48 323.16 174.69 331.54 167.14 339.95 160.27 348.32 154.23 356.74 149.65 365.2 146.86 373.63 145.66 382.14 146.41 390.7 148.98 399.25 152.61 407.88 157.32 416.56 162.57" stroke-dasharray="7 2" transform="rotate(16.16, 400, 400)"></path><path d="M414.32 173.7C422.56 178.37 430.58 182.47 438.36 185.66 446.12 187.38 453.61 187.95 460.78 187.47 467.91 185.73 474.68 183.47 481.06 181.08 490.28 177.52 506.23 176.08 512.89 179.49 517.07 183.44 520.79 188.79 524.08 195.35 527.39 202.75 530.38 210.95 533.15 219.66 536.17 228.56 539.15 237.53 542.23 246.39 545.84 254.89 549.78 263.03 554.15 270.75 559.29 277.88 565 284.57 571.32 290.89 578.43 296.65 586.07 302.16 594.12 307.53 602.61 312.51 611.17 317.51 619.53 322.62 627.62 327.51 634.98 332.65 641.29 338.1 646.56 343.44 650.31 349.17 652.32 355.3 652.91 361.4 651.67 367.94 648.68 374.93 644.57 381.91 639.15 389.37 632.74 397.31 626.23 405.25 619.69 413.51 613.51 422.06 608.29 430.64 603.97 439.52 600.68 448.69 598.81 457.89 597.98 467.36 598.06 477.04 599.27 486.71 600.99 496.52 602.94 506.36 605.31 516.03 607.38 525.55 608.91 534.73 610.14 543.46 610.44 551.57 609.71 558.84 606.96 567.96 594.73 578.43 585.63 579.4 578.7 578.81 571.11 577.13 563.01 574.65 554.61 572.27 545.91 569.86 537.03 567.9 528.08 567.31 519.09 568.05 510.15 570.5 501.25 575.18 492.45 581.85 483.78 590.43 475.21 600.76 466.77 612.18 458.45 624 450.23 635.58 442.1 645.96 434.07 654.25 426.1 660.05 418.19 662.59 410.35 661.56 402.52 657.49 394.74 650.31 387.01 640.69 379.28 630.09 371.78 619.3 364.51 609.38 357.24 601.43 350.2 595.81 343.43 592.82 336.66 592.83 330.15 595.24 323.92 599.53 317.69 605.54 311.75 612.02 306.09 618.19 297.73 625.95 282.26 629.06 275.05 623.3 270.18 616.79 265.47 608.41 260.87 598.6 256.06 587.79 251.3 576.32 246.57 564.63 241.55 552.95 236.51 541.62 231.44 530.86 226.08 520.73 220.7 511.35 215.32 502.73 209.74 494.87 204.25 487.66 198.92 480.98 193.57 474.88 188.51 469.08 183.86 463.43 179.4 458.12 175.5 452.76 172.24 447.22 169.37 441.82 167.23 436.12 165.87 430.05 164.94 424.02 164.77 417.56 165.33 410.65 166.16 403.73 167.58 396.36 169.51 388.52 171.4 380.69 173.54 372.59 175.81 364.3 177.76 356.04 179.72 347.61 181.62 339.1 183.1 330.67 184.52 322.22 185.92 313.85 186.97 305.65 188.1 297.62 189.37 289.9 190.49 282.47 191.91 275.47 193.7 269.02 196.74 260.3 205.76 247.13 211.88 242.79 216.47 240.44 221.61 238.69 227.26 237.43 233.2 236.05 239.58 234.81 246.35 233.51 253.32 231.53 260.6 229.1 268.13 226.03 275.76 221.89 283.58 216.96 291.52 211.22 299.51 204.55 307.58 197.36 315.72 189.91 323.85 182.32 332.03 175.14 340.23 168.79 348.42 163.36 356.63 159.4 364.86 157.17 373.08 156.43 381.32 157.5 389.56 160.23 397.81 163.91 406.07 168.55 414.31 173.69" stroke-dasharray="0 8" transform="rotate(20.200000000000003, 400, 400)"></path><path d="M410.39 184.82C418.17 189.39 425.69 193.47 432.93 196.73 440.15 198.64 447.06 199.49 453.64 199.35 460.17 197.98 466.35 196.03 472.13 193.83 480.5 190.23 495.05 187.26 501.24 189.25 505.22 192.06 508.86 196.23 512.19 201.62 515.63 207.92 518.9 215.15 522.07 223.08 525.56 231.41 529.12 240.06 532.87 248.82 537.15 257.48 541.79 265.97 546.85 274.21 552.58 282.04 558.81 289.52 565.53 296.66 572.85 303.32 580.54 309.7 588.48 315.86 596.65 321.63 604.72 327.31 612.46 332.97 619.82 338.37 626.39 343.88 631.89 349.57 636.4 355.12 639.48 360.94 640.97 367.07 641.18 373.14 639.76 379.58 636.78 386.41 632.83 393.22 627.72 400.46 621.71 408.15 615.61 415.84 609.45 423.81 603.56 432.02 598.49 440.25 594.16 448.71 590.71 457.38 588.51 466.02 587.22 474.82 586.78 483.68 587.39 492.45 588.53 501.17 589.97 509.73 591.91 518.01 593.71 525.94 595.15 533.34 596 550.52 586.06 563.21 578.7 562.63 572.96 561.53 566.5 559.8 559.47 557.73 552.09 556.15 544.31 554.93 536.24 554.47 528.02 555.51 519.65 557.94 511.21 562.01 502.76 568.03 494.31 575.75 485.93 584.96 477.59 595.43 469.34 606.56 461.2 617.69 453.12 628.29 445.14 637.51 437.27 644.64 429.44 649.41 421.7 651.17 414.07 649.71 406.45 645.56 398.91 638.65 391.47 629.57 384.03 619.6 376.84 609.41 369.92 599.9 363 592.04 356.33 586.16 349.93 582.57 343.51 581.67 337.36 582.99 331.48 586.14 325.58 591.07 319.94 596.72 314.56 602.44 306.53 610.4 291.46 617.01 284.29 614.15 279.4 609.81 274.62 603.57 269.91 595.76 264.98 586.77 260.07 576.79 255.17 566.2 250 555.27 244.81 544.27 239.61 533.47 234.16 522.95 228.72 512.91 223.33 503.43 217.79 494.49 212.38 486.13 207.19 478.3 202.01 470.99 197.18 464.06 192.77 457.44 188.6 451.16 184.97 445 181.99 438.87 179.39 432.93 177.5 426.86 176.35 420.62 175.6 414.45 175.57 408.01 176.23 401.28 177.14 394.56 178.6 387.52 180.54 380.15 182.45 372.79 184.59 365.28 186.87 357.68 188.85 350.11 190.83 342.5 192.78 334.91 194.32 327.4 195.8 319.99 197.25 312.77 198.34 305.73 199.49 298.96 200.73 292.58 202.44 283.66 207.31 269.01 210.82 263.51 215.08 259.08 226.63 253.14 233.9 251.04 239.17 249.4 244.9 247.67 251.03 245.68 257.38 242.92 264.06 239.62 271.02 235.66 278.13 230.72 285.45 225.07 292.94 218.79 300.5 211.79 308.18 204.49 315.95 197.14 323.75 189.87 331.6 183.17 339.48 177.41 347.38 172.62 355.29 169.29 363.19 167.61 371.11 167.31 379.01 168.66 386.88 171.54 394.76 175.23 402.6 179.79 410.38 184.81" stroke-dasharray="2 3" transform="rotate(24.24, 400, 400)"></path><path d="M405.25 195.94C412.56 200.41 419.58 204.44 426.31 207.75 433.02 209.84 439.43 210.96 445.49 211.15 454.38 209.36 470.31 203.13 477.35 200.42 484.02 199.05 495.87 203.07 501.29 208.77 505.01 213.87 508.66 219.97 512.33 226.89 516.33 234.37 520.49 242.35 524.87 250.65 529.76 259.07 534.98 267.54 540.59 275.93 546.76 284.11 553.33 292.08 560.25 299.8 567.61 307.17 575.19 314.28 582.84 321.16 590.57 327.7 598.07 334.09 605.12 340.37 611.72 346.4 617.5 352.43 622.22 358.52 626.02 364.45 628.48 370.54 629.5 376.82 629.39 383.02 627.83 389.49 624.88 396.24 621.11 402.97 616.3 410.03 610.68 417.44 604.99 424.84 599.19 432.42 593.6 440.15 588.7 447.87 584.41 455.71 580.85 463.61 578.37 471.47 576.69 479.31 575.77 487.07 575.82 494.67 576.39 502.06 577.31 509.11 579.5 518.98 583.1 535 583.57 540.59 579.47 545.46 563.1 543.72 554.5 541.9 548.19 541.47 541.41 541.67 534.27 542.81 526.92 545.43 519.32 549.4 511.58 554.85 503.75 561.94 495.85 570.37 487.94 579.89 480.02 590.24 472.14 600.86 464.32 611.15 456.53 620.7 448.81 628.76 441.2 634.77 433.61 638.58 426.12 639.64 418.73 637.81 411.36 633.63 404.08 627.01 396.92 618.45 389.76 609.11 382.87 599.5 376.25 590.42 369.61 582.72 363.24 576.67 357.12 572.59 350.99 570.87 345.1 571.18 339.47 573.22 333.79 577.04 328.34 581.75 323.12 586.82 315.27 594.54 300.3 603.53 293.05 603.1 288.09 600.72 283.19 596.56 278.34 590.8 273.27 583.82 268.21 575.64 263.15 566.59 257.87 556.93 252.57 546.86 247.28 536.65 241.8 526.4 236.36 516.33 231.01 506.58 225.58 497.11 220.32 488.08 215.31 479.49 210.37 471.28 205.8 463.46 201.68 456 197.8 448.84 194.48 441.92 191.79 435.17 189.47 428.6 187.82 422.08 186.88 415.56 186.31 409.12 186.41 402.59 187.16 395.94 188.14 389.31 189.63 382.51 191.57 375.57 193.48 368.62 195.62 361.67 197.89 354.78 199.89 347.91 201.91 341.12 203.9 334.48 205.5 327.91 207.05 321.55 208.56 315.47 210.3 306.75 213.79 291.63 215.85 285.48 221.5 276.25 234.79 266.78 241.12 264.2 245.74 262 250.8 259.57 256.26 256.75 261.93 253.15 267.96 248.98 274.29 244.19 280.77 238.56 287.5 232.36 294.43 225.71 301.46 218.57 308.64 211.33 315.92 204.25 323.27 197.42 330.68 191.29 338.14 186.17 345.63 182.05 353.14 179.34 360.63 178.19 368.15 178.3 375.65 179.91 383.09 182.89 390.54 186.58 397.94 191.05 405.24 195.93" stroke-dasharray="9 6" transform="rotate(28.28, 400, 400)"></path><path d="M399.5 207.05C406.32 211.41 412.88 215.38 419.15 218.73 428.39 221.65 445.33 221.64 453.02 219.39 460.38 216.16 473.72 211.39 479.82 211.13 485.9 212.95 497.87 223.28 504.09 231.49 508.6 237.89 513.29 244.93 518.22 252.46 523.59 260.27 529.27 268.32 535.25 276.47 541.68 284.62 548.39 292.7 555.34 300.64 562.56 308.4 569.86 315.98 577.1 323.35 584.29 330.48 591.13 337.44 597.46 344.26 603.29 350.87 608.3 357.4 612.28 363.9 615.41 370.26 617.32 376.66 617.92 383.13 617.54 389.53 615.88 396.07 612.99 402.77 609.4 409.45 604.89 416.32 599.66 423.4 594.35 430.47 588.92 437.59 583.63 444.7 578.92 451.81 574.7 458.89 571.08 465.87 568.39 472.8 566.38 479.56 565.03 486.08 564.59 495.43 566.5 511.59 567.96 517.96 567.41 527.66 555.02 527.9 547.98 527.72 542.73 528.64 536.98 530.33 530.81 533.02 524.41 537.09 517.7 542.37 510.76 548.91 503.7 556.73 496.49 565.55 489.19 575.08 481.85 585.06 474.48 594.98 467.12 604.32 459.76 612.77 452.43 619.69 445.18 624.63 437.93 627.56 430.75 628 423.67 625.86 416.6 621.69 409.62 615.37 402.74 607.33 395.86 598.6 389.24 589.58 382.87 580.94 376.49 573.44 370.36 567.31 364.46 562.84 355.69 560.12 339.15 565.38 331.32 571.5 326.09 576.33 321 580.85 316.04 584.66 308.48 588.86 293.51 588.44 286.01 583.49 280.82 578.52 275.64 572.29 270.47 565.04 265.11 557.01 259.76 548.33 254.45 539.23 249.01 529.84 243.64 520.35 238.4 510.92 233.14 501.55 228.09 492.4 223.32 483.55 218.67 474.91 214.41 466.6 210.6 458.62 207.05 450.86 204.05 443.38 201.65 436.15 199.61 429.06 198.21 422.15 197.47 415.36 197.07 408.65 197.3 402 198.12 395.39 199.15 388.8 200.66 382.22 202.6 375.63 204.5 369.05 206.63 362.62 208.89 356.37 210.9 350.13 212.94 344.1 214.95 338.32 217.42 329.88 221.65 314.78 223.55 308.3 227.21 297.75 235.02 286.07 238.95 283.11 243.54 279.8 255.19 271.78 262.18 266.47 267.17 262.04 272.51 257.09 278.16 251.61 283.97 245.46 290.05 238.91 296.35 232.08 302.76 224.99 309.34 217.99 316.06 211.32 322.85 205.04 329.73 199.55 336.68 195.12 343.66 191.66 350.68 189.56 357.7 188.92 364.75 189.39 371.77 191.23 378.75 194.29 385.74 197.96 392.66 202.32 399.49 207.05" stroke-dasharray="1 9" transform="rotate(32.32, 400, 400)"></path><path d="M393.8 218.17C400.16 222.4 406.28 226.3 412.14 229.65 420.8 232.83 436.82 233.81 444.19 232.11 451.34 229.26 464.68 224.22 471.01 223.2 477.43 223.79 490.49 230.83 497.39 237.21 502.33 242.4 507.46 248.32 512.81 254.82 518.52 261.73 524.47 269.02 530.65 276.57 537.16 284.27 543.84 292.07 550.62 299.86 557.56 307.62 564.45 315.29 571.16 322.83 577.72 330.25 583.87 337.53 589.44 344.66 594.52 351.66 598.78 358.54 602.08 365.32 604.59 372 606 378.64 606.24 385.24 605.64 391.8 603.9 398.37 601.09 404.97 597.7 411.56 593.49 418.21 588.63 424.9 583.7 431.6 578.64 438.18 573.66 444.64 569.16 451.07 565.03 457.33 561.39 463.37 557.41 472.18 553.43 487.9 553.1 494.51 554.49 510.5 545.56 513.83 539.91 515.59 535.65 517.9 530.89 521.03 525.68 525.11 520.24 530.39 514.45 536.69 508.38 543.97 502.16 552.21 495.73 561.09 489.15 570.35 482.5 579.75 475.76 588.82 468.96 597.14 462.15 604.47 455.31 610.29 448.5 614.24 441.69 616.35 434.91 616.25 428.19 613.87 421.47 609.74 414.81 603.73 408.23 596.21 401.65 588.08 395.3 579.64 389.17 571.47 383.02 564.22 377.09 558.08 371.37 553.32 362.83 549.61 346.57 551.92 338.79 556.61 333.56 560.71 328.45 564.8 323.43 568.52 315.77 573.3 300.51 576.24 292.84 573.78 287.58 570.69 282.34 566.37 277.11 560.97 271.75 554.77 266.42 547.76 261.17 540.14 255.84 532.07 250.62 523.65 245.57 515.08 240.55 506.35 235.76 497.65 231.29 489.07 226.97 480.54 223.04 472.21 219.57 464.14 216.36 456.18 213.69 448.47 211.6 441.02 209.83 433.67 208.67 426.54 208.13 419.62 207.89 412.76 208.23 406.06 209.12 399.52 210.19 393 211.71 386.6 213.63 380.34 215.52 374.07 217.62 368.08 219.85 362.37 222.89 353.97 228.51 338.76 230.99 332.05 234.79 320.47 240.46 306.71 242.87 303.11 245.58 299.41 252.88 291.6 257.57 287 260.97 283.28 264.76 279.2 268.91 274.69 273.24 269.55 277.9 263.97 282.87 257.99 287.99 251.53 293.39 244.83 299.02 238.04 304.76 231.19 310.69 224.58 316.78 218.45 322.95 212.81 329.24 208.02 335.61 204.28 342.02 201.49 348.5 199.98 354.99 199.79 361.5 200.61 368.02 202.64 374.5 205.75 380.99 209.36 387.43 213.6 393.79 218.17" stroke-dasharray="1 3" transform="rotate(36.36, 400, 400)"></path><path d="M388.83 229.29C394.74 233.38 400.46 237.19 405.97 240.53 411.48 243.01 416.79 244.81 421.89 245.92 432.11 245.3 441.62 242.85 450.49 239.88 459.67 236.42 468.6 235.12 477.54 236.76 487.3 240.73 497.56 248.11 508.46 258.28 520.46 270.29 533.09 283.93 545.93 298.33 558.92 313.1 570.97 327.83 581.05 342.15 589.17 356.25 593.86 369.92 594.47 383.14 593.69 389.71 591.92 396.2 589.21 402.62 586.01 409.03 582.09 415.38 577.6 421.66 573.04 427.93 568.34 433.97 563.67 439.76 559.4 445.53 555.4 451.01 551.79 456.18 546.62 466.33 543.31 474.92 541.59 481.61 542.38 489.8 542.47 496.98 538.28 499.27 533.84 503.29 527.26 509.56 518.84 518.97 509.59 532.2 498.96 548.23 487.42 565.55 475.55 582.43 463.15 596 450.57 603.58 444.26 604.98 437.94 604.4 431.62 601.85 425.31 597.79 419.02 592.11 412.76 585.09 406.5 577.54 400.42 569.69 394.53 561.99 388.62 555.03 382.87 548.95 377.3 544 366.07 538.7 355.37 538.57 345.15 542.3 334.64 549.4 324.39 556.19 314.34 560.62 303.83 562.86 293.4 560.61 283.11 554.1 272.48 544.61 262.19 532.05 252.57 517.69 243.22 502.23 235.08 486.39 228.62 470.94 223.19 455.54 219.87 440.87 218.85 427.14 218.76 420.33 219.2 413.72 220.15 407.32 221.25 400.95 222.77 394.76 224.66 388.79 227.55 380 233.81 364.12 236.89 357.04 240.1 347.81 243.22 339.97 246.28 333.47 248.36 326.76 250.87 321.04 254.05 315.92 257.08 309.75 261.31 303.26 266.8 295.87 272.72 286.43 280.04 275.57 288.57 263.46 297.6 250.19 307.66 237.15 318.47 225.74 329.58 216.54 341.2 211.29 353.03 210.83 358.99 211.94 364.98 214.12 370.95 217.25 376.94 220.8 382.9 224.89 388.82 229.29" stroke-dasharray="8 9" transform="rotate(40.400000000000006, 400, 400)"></path><path d="M385.16 240.41C396.15 247.78 406.58 253.67 416.4 257.26 426.28 257.4 435.7 255.75 444.76 253.3 454.13 249.92 463.47 248 472.96 248.37 483.15 250.43 493.81 255.53 504.95 263.31 516.85 272.91 529.06 284.41 541.1 297.06 552.96 310.45 563.63 324.19 572.25 337.8 579.01 351.47 582.63 364.8 582.62 377.59 580.24 390.36 574.67 402.65 566.57 414.28 558.26 425.92 549.83 436.28 542.25 445.24 536.87 454.03 533 461.22 530.51 466.68 529.97 473.8 529.17 482.8 525.85 488.18 522.49 494.51 517.27 503.1 510.37 514.37 502.79 528.48 493.8 544.37 483.78 560.53 473.42 575.5 462.36 586.91 450.9 592.66 439.37 592.78 427.61 586.2 415.8 573.97 403.98 559.92 392.65 546.04 381.83 534.88 370.92 528.63 360.39 526.83 350.19 528.67 339.76 534.03 329.5 539.88 319.4 544.46 308.97 547.96 298.64 547.99 288.55 544.38 278.3 538.27 268.51 529.05 259.49 517.64 250.87 504.88 243.5 491.14 237.78 477.21 233.06 463.03 230.29 449.21 229.64 436.11 229.94 423.06 232.03 410.76 235.68 399.38 239.26 387.99 243.42 378 247.76 369.33 251.08 360.57 254.34 353.01 257.53 346.48 259.77 339.54 262.32 333.17 265.38 326.96 268.14 319.61 271.87 311.67 276.66 302.78 281.69 292.22 287.95 280.58 295.33 268.22 303.09 255.39 311.86 243.33 321.41 233.28 331.22 225.57 341.61 221.62 352.34 222.03 363.15 225.37 374.16 231.92 385.15 240.4" stroke-dasharray="7 9" transform="rotate(44.44, 400, 400)"></path><path d="M383.23 251.53C393.44 258.63 403.32 264.51 412.83 268.45 422.41 269.32 431.77 268.48 440.97 266.68 450.47 263.64 460.08 261.48 469.89 260.97 480.24 261.55 490.98 264.68 502.01 270.22 513.48 277.37 524.96 286.52 535.98 297.06 546.57 308.51 555.83 320.66 563.04 332.99 568.55 345.59 571.21 358.02 570.69 369.99 568.22 382.01 562.99 393.49 555.54 404.19 547.92 414.89 540.06 424.23 532.78 432.17 527.29 440.03 522.99 446.45 519.84 451.49 518.06 458.68 515.93 471.28 513.03 479.86 510.37 488.22 506.18 498.58 500.51 511.01 494.33 525.32 486.81 540.51 478.2 555.13 469.29 568.07 459.55 577.4 449.23 581.5 438.85 580.75 428.04 574.22 416.99 562.86 405.93 549.91 395.14 536.89 384.68 525.94 374.16 518.97 363.86 515.74 353.79 515.81 343.55 519.32 333.42 523.88 323.45 528.01 313.27 531.98 303.25 533.47 293.55 532.07 283.85 528.79 274.7 522.63 266.41 514.17 258.61 504.36 252.05 493.15 247.09 481.27 243.05 468.93 240.81 456.53 240.51 444.49 241.02 432.42 243.15 420.87 246.71 410.08 250.2 399.29 254.27 389.69 258.56 381.22 261.95 372.61 265.33 364.89 268.66 357.86 271.08 350.33 273.73 343 276.75 335.54 279.38 327.01 282.77 317.81 287.03 307.77 291.36 296.53 296.75 284.61 303.14 272.51 309.78 260.52 317.39 249.72 325.77 241.17 334.35 234.94 343.57 232.22 353.24 233.4 362.96 237.03 373.02 243.44 383.23 251.53" stroke-dasharray="1 9" transform="rotate(48.48, 400, 400)"></path><path d="M383.26 262.65C392.74 269.45 402.11 275.28 411.31 279.49 420.58 281.02 429.82 281 439.05 279.94 448.53 277.45 458.19 275.38 468.04 274.4 478.27 273.95 488.76 275.52 499.33 279.15 510.07 284.04 520.59 290.86 530.42 299.17 539.67 308.4 547.53 318.57 553.41 329.21 557.78 340.23 559.62 351.32 558.7 362.13 556.19 373.05 551.32 383.52 544.51 393.29 537.55 403.06 530.27 411.62 523.35 418.95 517.86 426.3 513.27 432.52 509.6 437.78 507.5 443.34 505.89 448.4 504.4 453.39 503.64 459.46 502.3 466.28 500.09 474.33 497.83 484.2 494.33 495.66 489.58 508.52 484.51 522.4 478.2 536.4 470.83 549.23 463.22 560.11 454.72 567.46 445.53 570.1 436.26 568.63 426.43 562.25 416.18 551.74 405.94 539.88 395.77 527.77 385.77 517.15 375.73 509.71 365.79 505.3 355.99 503.77 346.09 505.45 336.28 508.48 326.63 511.7 316.9 515.44 307.37 517.6 298.25 517.63 289.26 516.46 280.89 512.81 273.43 506.99 266.49 500.01 260.78 491.41 256.56 481.79 253.19 471.64 251.45 461.02 251.46 450.35 252.14 439.58 254.29 429.01 257.74 418.86 261.13 408.71 265.08 399.42 269.28 390.92 272.72 382.28 276.19 374.19 279.64 366.44 282.26 358.2 285.04 349.9 288.1 341.3 290.7 331.83 293.9 321.74 297.78 311.05 301.61 299.64 306.32 287.98 311.91 276.62 317.62 265.81 324.21 256.48 331.57 249.49 339.06 244.7 347.21 243.11 355.89 244.93 364.62 248.76 373.78 254.98 383.26 262.65" stroke-dasharray="10 7" transform="rotate(52.52, 400, 400)"></path><path d="M385.25 273.77C394.05 280.23 402.9 285.95 411.74 290.36 420.65 292.48 429.65 293.22 438.73 292.95 448 291.18 457.45 289.47 467.04 288.4 476.86 287.4 486.78 287.89 496.6 290.03 506.39 293.04 515.77 297.78 524.31 303.97 532.2 310.96 538.71 319.03 543.37 327.78 546.73 336.93 547.88 346.41 546.65 355.86 544.17 365.43 539.67 374.78 533.48 383.67 527.17 392.56 520.48 400.53 513.96 407.61 508.57 414.75 503.81 421.17 499.77 427.06 497.05 433.35 494.77 439.57 492.68 446.05 491.35 453.54 489.66 461.87 487.38 471.29 485.22 482.03 482.12 493.88 478.01 506.47 473.72 519.39 468.36 531.84 462.02 542.71 455.51 551.55 448.11 557.09 439.97 558.48 431.75 556.44 422.89 550.28 413.49 540.62 404.09 529.83 394.62 518.64 385.18 508.49 375.74 500.8 366.31 495.5 356.96 492.61 347.58 492.57 338.27 493.97 329.15 495.98 320.05 498.95 311.22 501.06 302.85 501.76 294.69 501.87 287.2 500.03 280.64 496.3 274.6 491.7 269.72 485.49 266.24 478.04 263.49 470.11 262.21 461.38 262.49 452.23 263.32 442.95 265.46 433.49 268.77 424.05 272.03 414.61 275.84 405.62 279.92 397.05 283.37 388.36 286.9 379.88 290.44 371.46 293.24 362.65 296.17 353.6 299.31 344.2 301.97 334.22 305.09 323.77 308.75 313.01 312.24 301.98 316.47 291.08 321.43 280.86 326.42 271.49 332.2 263.74 338.69 258.31 345.25 254.87 352.48 254.27 360.28 256.62 368.1 260.57 376.45 266.54 385.25 273.77" stroke-dasharray="6 11" transform="rotate(56.56, 400, 400)"></path><path d="M388.97 284.89C397.1 290.99 405.4 296.54 413.8 301.07 422.25 303.68 430.86 305.12 439.58 305.63 448.42 304.67 457.42 303.54 466.46 302.7 475.59 301.57 484.69 301.48 493.53 302.62 502.21 304.25 510.33 307.33 517.55 311.71 524.12 316.68 529.36 322.77 532.93 329.67 535.41 336.93 535.99 344.72 534.56 352.75 532.14 360.89 528.02 369.09 522.45 377.15 516.78 385.22 510.68 392.76 504.61 399.78 499.4 406.9 494.6 413.7 490.32 420.34 487.13 427.38 484.29 434.65 481.66 442.35 479.75 450.86 477.64 460.15 475.15 470.26 472.9 481.18 469.95 492.73 466.22 504.44 462.44 515.97 457.77 526.61 452.24 535.49 446.61 542.4 440.15 546.31 432.94 546.64 425.69 544.19 417.75 538.3 409.22 529.5 400.68 519.75 391.98 509.52 383.24 499.94 374.51 492.22 365.73 486.3 357.02 482.31 348.32 480.75 339.7 480.58 331.31 481.2 323 483.03 315.01 484.55 307.52 485.24 297.03 485.45 280.95 477.73 276.13 469.98 273.96 464.02 273.1 457.07 273.6 449.4 274.54 441.62 276.64 433.32 279.8 424.66 282.91 416 286.55 407.39 290.49 398.87 293.9 390.26 297.45 381.57 301.04 372.77 303.99 363.69 307.07 354.32 310.31 344.65 313.07 334.68 316.2 324.45 319.74 314.19 323.06 304.04 326.96 294.32 331.48 285.54 335.94 277.75 341.09 271.63 346.88 267.69 352.69 265.48 359.14 265.73 366.18 268.47 373.22 272.46 380.83 278.13 388.97 284.89" stroke-dasharray="3 7" transform="rotate(60.599999999999994, 400, 400)"></path><path d="M393.97 296C401.46 301.71 409.16 307.04 417.01 311.6 424.89 314.59 432.94 316.64 441.09 317.87 449.29 317.75 457.59 317.34 465.83 316.97 474.07 316.1 482.15 315.86 489.86 316.5 497.32 317.28 504.16 319.2 510.08 322.23 517.45 327.82 523.92 343.99 522.43 353.8 520.13 360.58 516.4 367.69 511.41 375 506.35 382.31 500.85 389.47 495.27 396.49 490.33 403.59 485.61 410.72 481.23 417.97 477.72 425.54 474.46 433.5 471.39 441.93 468.96 450.89 466.44 460.47 463.67 470.55 461.2 480.99 458.24 491.63 454.69 502 451.19 511.84 446.98 520.57 442.05 527.48 437.09 532.62 431.39 535.12 425.01 534.6 418.59 531.88 411.53 526.34 403.86 518.38 396.2 509.65 388.33 500.39 380.39 491.49 372.46 483.93 364.48 477.66 356.55 472.87 348.68 470.05 340.92 468.46 333.4 467.71 326.02 468.21 318.98 468.76 312.47 468.94 303.46 469.15 290.06 464 286.27 458.28 284.62 453.85 284.12 448.38 284.79 442.02 285.82 435.58 287.85 428.39 290.83 420.57 293.76 412.74 297.21 404.66 300.96 396.4 304.3 388.11 307.81 379.55 311.41 370.78 314.47 361.88 317.66 352.69 320.98 343.33 323.88 333.91 327.05 324.45 330.55 315.22 333.8 306.33 337.52 298.09 341.73 290.94 348.17 282.52 363.89 277.01 373.18 280.49 379.54 284.42 386.48 289.75 393.97 296" stroke-dasharray="5 10" transform="rotate(64.64, 400, 400)"></path><path d="M399.68 307.12C406.51 312.4 413.56 317.45 420.73 321.95 427.93 325.21 435.27 327.75 442.66 329.61 450.05 330.31 457.45 330.66 464.72 330.92 471.91 330.55 478.86 330.55 485.35 331.1 494.37 332.2 507.58 338.91 510.94 344.57 511.97 351.23 506.46 367.92 500.39 377.6 495.92 384.2 491.01 390.97 485.94 397.87 481.34 404.85 476.81 412.07 472.47 419.57 468.79 427.29 465.27 435.43 461.89 443.96 459.05 452.77 456.16 461.97 453.12 471.36 450.39 480.78 447.32 490.05 443.83 498.75 440.45 506.77 436.53 513.58 432.04 518.66 427.56 522.22 422.48 523.54 416.81 522.37 411.13 519.52 404.86 514.38 398.06 507.26 391.25 499.53 384.26 491.25 377.19 483.1 370.14 475.89 363.06 469.53 356.05 464.25 349.11 460.48 342.31 457.71 335.78 455.72 326.39 454.59 310.36 453.11 304.24 451.3 299.52 448.69 295.37 438.54 296.07 431.05 297.14 425.7 299.08 419.52 301.86 412.55 304.6 405.59 307.82 398.2 311.36 390.5 314.57 382.8 317.99 374.76 321.53 366.49 324.64 358.21 327.89 349.73 331.27 341.22 334.28 332.83 337.51 324.58 341 316.75 344.24 309.39 347.86 302.8 351.86 297.32 357.9 291.23 372.31 288.78 380.76 292.65 386.54 296.45 392.85 301.39 399.68 307.12" stroke-dasharray="11 8" transform="rotate(68.68, 400, 400)"></path><path d="M405.43 318.24C417.73 327.23 430.75 335.08 443.71 340.78 456.6 342.65 469.05 343.85 479.85 345.76 489.63 346.69 496.58 350.22 499.45 356.64 500.29 363.22 496.85 372.59 489.36 384.46 481.67 396.33 472.77 409.71 464 424.16 457.13 439.07 450.41 455.39 443.64 471.86 437.98 487.54 431.12 500.92 422.78 509 414.57 512.22 404.41 507.86 392.48 496.14 380.54 482.54 368.08 468.3 355.98 456.37 344.16 448.82 333.13 443.85 323.94 440.07 315.64 438.42 309.82 435.17 307.3 429.28 305.97 423.41 307.84 414.34 312.89 402.15 317.81 389.96 324.27 375.97 331.39 361.25 337.22 346.81 343.74 332.27 350.89 319.4 357.17 308.49 364.78 301.29 373.79 299.56 382.55 301.15 393.12 307.81 405.43 318.24" stroke-dasharray="2 1" transform="rotate(72.72, 400, 400)"></path><path d="M410.54 329.36C421.43 337.53 432.73 345.15 443.73 351.31 454.59 354.5 464.77 357.05 473.25 359.83 483.41 363.07 486.37 379.75 478.33 394.28 471.72 404.82 463.84 417.05 455.78 430.27 449.02 443.59 442.18 457.73 435.3 471.27 429.32 483.62 422.52 493.42 414.74 498.52 407.14 499.9 398.1 495.33 387.78 485.02 377.45 473.29 366.88 460.58 356.8 449.16 346.97 440.72 338.01 434.12 330.75 428.73 324.21 425.28 319.83 421.1 318.22 415.31 317.45 409.78 319.34 401.83 323.92 391.34 328.4 380.84 334.33 368.92 340.99 356.63 346.7 344.74 353.12 333.27 360.08 323.72 366.33 315.9 373.62 311.43 381.98 311.45 390.09 313.77 399.64 320.06 410.54 329.36" stroke-dasharray="10 5" transform="rotate(76.76, 400, 400)"></path><path d="M414.42 340.48C423.84 347.74 433.33 354.9 442.32 361.19 451.15 365.32 459.14 368.99 465.51 372.67 473.02 377.01 474.15 392.51 467.3 405.2 461.74 414.38 454.95 424.97 447.76 436.2 441.41 447.32 434.79 458.65 428.1 468.92 422.06 477.98 415.47 484.57 408.28 487.23 401.26 487.27 393.29 482.77 384.51 473.91 375.73 464 367 452.98 358.88 442.5 350.95 433.89 343.92 426.4 338.43 419.91 333.44 414.94 330.28 409.78 329.4 403.82 329.05 398.21 330.88 391.04 334.95 382.17 338.94 373.3 344.26 363.64 350.31 354.06 355.73 344.89 361.84 336.51 368.44 330.07 374.51 324.96 381.4 322.69 389.04 323.93 396.49 326.63 404.99 332.36 414.42 340.48" stroke-dasharray="5 8" transform="rotate(80.80000000000001, 400, 400)"></path><path d="M416.61 351.6C424.5 357.87 432.17 364.33 439.2 370.38 446.1 375.01 452.1 379.41 456.67 383.75 461.98 389.21 461.93 404.23 456.27 415.12 451.73 422.88 446.06 431.5 439.89 440.31 434.21 448.92 428.15 457.26 421.96 464.34 416.2 470.43 410.04 474.35 403.57 475.21 397.24 474.36 390.34 470.18 383.05 462.79 375.76 454.68 368.77 445.45 362.46 436.28 356.28 428.16 350.99 420.56 347.01 413.66 343.35 407.79 341.19 401.97 340.83 395.95 340.79 390.23 342.48 383.73 345.98 376.4 349.42 369.08 354.04 361.64 359.36 354.71 364.29 348.09 369.89 342.49 375.91 338.66 381.58 335.7 387.88 335.01 394.68 336.96 401.35 339.71 408.71 344.73 416.61 351.6" stroke-dasharray="4 6" transform="rotate(84.84, 400, 400)"></path><path d="M416.85 362.72C429.48 372.38 440.36 383 446.83 392.7 452.26 400 452.09 409.6 445.24 422.16 438.21 434.71 427.73 447.98 416.75 457.26 406.75 463.91 395.26 462.7 383.58 451.67 371.89 438.85 362.14 423.39 356.48 409.78 351.49 398.43 351.3 386.82 357.01 375.13 362.57 363.43 371.88 353.78 382.46 349.46 392.27 346.97 404.22 351.49 416.85 362.72" stroke-dasharray="7 6" transform="rotate(88.88, 400, 400)"></path><path d="M415.13 373.84C424.56 381.5 432.07 390.62 436.14 399.36 439.7 406.84 439.3 415.52 434.21 424.97 429.03 434.43 420.97 442.86 412.29 447.67 404.07 451.07 394.83 449.01 386.02 440.55 377.21 431.09 370.39 419.08 366.77 407.85 363.43 397.58 363.6 387.41 368.03 378.59 372.39 369.77 379.74 363.86 388.14 362.22 396.19 361.32 405.69 365.27 415.13 373.84" stroke-dasharray="4 3" transform="rotate(92.92, 400, 400)"></path><path d="M411.63 384.96C424.11 394.96 429.71 410.45 423.18 423.03 416.48 435.6 401.97 440.12 390.1 429.43 378.22 417.01 373.03 398.03 379.06 386.13 384.95 374.22 399.14 373.33 411.63 384.96" stroke-dasharray="2 10" transform="rotate(96.96, 400, 400)"></path></g></svg>