<svg xmlns="http://www.w3.org/2000/svg" version="1.1" xmlns:xlink="http://www.w3.org/1999/xlink" xmlns:svgjs="http://svgjs.dev/svgjs" viewBox="0 0 800 800"><g stroke-width="3" stroke="url(#uundulate-grad)" fill="none"><path d="M673.2010608112948 198.09158775664918C697.3569644083017 279.0745851900473 472.22126353859653 566.4965172822607 359.85199614295357 625.4891695055674C247.4827287473106 684.4818217288739 157.984480909215 562.2393158619184 133.82857731220804 481.2563184285202C109.67267371520109 400.27332099512216 131.53439148167672 295.7634340485622 243.90365887731969 236.7707818252556C356.27292627296265 177.778129601949 649.0451572142878 117.10859032325106 673.2010608112948 198.09158775664918C697.3569644083017 279.0745851900473 472.22126353859653 566.4965172822607 359.85199614295357 625.4891695055674 "></path><path d="M660.782833548743 207.26925326233948C683.8407415277043 284.5712053578559 468.93848160662196 558.9285041731505 361.6769081835082 615.2396722044887C254.41533476039444 671.5508402358266 168.98518909675778 554.8648119082782 145.92728111779655 477.5628598127619C122.86937313883539 400.26090771724546 143.73737646138034 300.5014701773473 250.9989498844941 244.19030214600923C358.26052330760785 187.87913411467116 637.7249255697818 129.96730116682306 660.782833548743 207.26925326233948C683.8407415277043 284.5712053578559 468.93848160662196 558.9285041731505 361.6769081835082 615.2396722044887 "></path><path d="M648.3646062861912 216.44688825045165C670.3245186471067 290.0677950080863 465.6556996746474 551.3604605464621 363.50182022406284 604.9901443858319C261.3479407734784 658.6198282252014 179.98589728430056 547.4902774370601 158.02598492338512 473.8693706794254C136.06607256246974 400.24846392179074 155.94036144108395 305.2394757885544 258.09424089166845 251.6097919491848C360.24812034225295 197.98010810981515 626.4046939252759 142.825981492817 648.3646062861912 216.44688825045165C670.3245186471067 290.0677950080863 465.6556996746474 551.3604605464621 363.50182022406284 604.9901443858319 "></path><path d="M635.9463485060614 225.62452323856382C656.8082652489311 295.5643846583168 462.3728872250947 543.7924169197738 365.32670174703946 594.7406165671749C268.2805162689841 645.688816214576 190.98657495426522 540.1157429658417 170.12465821139557 470.17588154608893C149.26274146852592 400.2360201263359 168.14331590320944 309.9774813997615 265.18950138126473 259.0292817523603C362.23568685932 208.08108210495914 615.0844317631918 155.68466181881092 635.9463485060614 225.62452323856382C656.8082652489311 295.5643846583168 462.3728872250947 543.7924169197738 365.32670174703946 594.7406165671749 "></path><path d="M623.5281212435096 234.80218874425412C643.2920423683336 301.0610048261253 459.09010529312013 536.2244038106636 367.1516137875941 584.4911192660962C275.213122282068 632.757834721529 201.987283141808 532.7412390122017 182.22336201698414 466.4824229303305C162.45944089216022 400.2236068484593 180.34630088291306 314.71551752854657 272.2847923884391 266.44880207311394C364.2232838939651 218.1820866176813 603.7642001186857 168.54337266238292 623.5281212435096 234.80218874425412C643.2920423683336 301.0610048261253 459.09010529312013 536.2244038106636 367.1516137875941 584.4911192660962 "></path><path d="M611.1098939809578 243.97985424994442C629.775819487736 306.5576249939339 455.80732336114556 528.6563907015534 368.97652582814874 574.2416219650177C282.1457282951519 619.8268532284817 212.9879913293508 525.3667350585615 194.32206582257265 462.7889643145721C175.65614031579457 400.21119357058274 192.54928586261667 319.4535536573318 279.3800833956135 273.86832239386763C366.2108809286103 228.28309113040342 592.4439684741799 181.40208350595498 611.1098939809578 243.97985424994442C629.775819487736 306.5576249939339 455.80732336114556 528.6563907015534 368.97652582814874 574.2416219650177 "></path><path d="M598.6916819771952 253.15751975563478C616.2596118659276 312.0542451617425 452.52455668796006 521.0883775924432 370.80145312749255 563.9921246639389C289.0783495670249 606.8958717354346 223.98871477568264 517.9922311049215 206.4207848869503 459.0955056988138C188.85285499821794 400.19878029270603 204.75228610110935 324.19158978611694 286.47538966157697 281.28784271462126C368.1984932220446 238.3840956431256 581.1237520884629 194.26079434952703 598.6916819771952 253.15751975563478C616.2596118659276 312.0542451617425 452.52455668796006 521.0883775924432 370.80145312749255 563.9921246639389 "></path><path d="M586.2734394558544 262.33520052011414C602.743373726541 317.55088058834014 449.2417594971964 513.520379742122 372.6263499092581 553.7426426216492C296.0109403213197 593.9649055011764 234.98940770443636 510.6177424100704 218.5194734337498 455.4020623418444C202.04953916306323 400.1863822736184 216.9552558220239 328.92964117369115 293.5706654099623 288.70737829416396C370.1860749979006 248.48511541463677 569.8035051851678 207.11952045188815 586.2734394558544 262.33520052011414C602.743373726541 317.55088058834014 449.2417594971964 513.520379742122 372.6263499092581 553.7426426216492 "></path><path d="M573.8551969345135 271.51282024943725C589.2271355871544 323.0474549797815 445.9589623064328 505.95232085664463 374.4512466910237 543.4930995442033C302.94353107561454 581.0338782317622 245.99010063319008 503.2431926800632 230.6181619805493 451.70855794971885C215.24622332790847 400.1739232193746 229.15822554293845 333.6676315261092 300.6659411583476 296.12685283855046C372.17365677375676 258.5860741509917 558.4832582818728 219.97818551909296 573.8551969345135 271.51282024943725C589.2271355871544 323.0474549797815 445.9589623064328 505.95232085664463 374.4512466910237 543.4930995442033 "></path><path d="M561.4369696719618 280.69048575512755C575.7109127065569 328.5440751475901 442.6761803744582 498.3843077475344 376.27615873157833 533.2436022431247C309.87613708869844 568.1028967387149 256.99080882073287 495.868688726423 242.71686578613782 448.0150993339605C228.44292275154282 400.16150994149797 241.36121052264207 338.40566765489433 307.761232165522 303.5463731593041C374.16125380840197 268.68707866371386 547.1630266373668 232.83689636266502 561.4369696719618 280.69048575512755C575.7109127065569 328.5440751475901 442.6761803744582 498.3843077475344 376.27615873157833 533.2436022431247 "></path><path d="M549.0187729269883 289.8681665196069C562.1947203435375 334.0407105741877 439.3934289600619 490.81630989721316 378.10110128971115 522.9941202008349C316.80877361936047 555.1719305044567 267.9915475258538 488.49420003157195 254.8156001093045 444.3216559769911C241.63965269275525 400.1491119224104 253.5642260199238 343.14371904246855 314.8565536902745 310.9659087388468C376.14888136062524 278.78809843522504 535.842825510439 245.69562246502613 549.0187729269883 289.8681665196069C562.1947203435375 334.0407105741877 439.3934289600619 490.81630989721316 378.10110128971115 522.9941202008349 "></path><path d="M536.6005456644365 299.0458015077191C548.67849746294 339.5373002244182 436.1106470280873 483.24826627052494 379.92601333026585 512.7445923821782C323.74137963244436 542.2409184938315 278.99225571339656 481.1196655603537 266.9143039148931 440.62816684365464C254.8363521163896 400.1366681269556 265.7672109996274 347.88172465367563 321.9518446974489 318.38539854202236C378.1364783952704 288.889072430369 524.522593865933 258.55430279102006 536.6005456644365 299.0458015077191C548.67849746294 339.5373002244182 436.1106470280873 483.24826627052494 379.92601333026585 512.7445923821782 "></path><path d="M524.1822726255175 308.2234212370422C535.1622288059752 345.03387461585953 432.8278193197456 475.6802073850474 381.7508795944533 502.49504930473233C330.6739398691611 529.3098912244171 289.99291812457216 473.74511583034644 279.01296194411447 436.9346624515291C268.0330057636567 400.1242090727118 277.97015020296385 352.6197150060936 329.0470899282561 325.8048730864088C380.12402965354835 298.990031166724 513.2023164450598 271.4129678582249 524.1822726255175 308.2234212370422C535.1622288059752 345.03387461585953 432.8278193197456 475.6802073850474 381.7508795944533 502.49504930473233 "></path><path d="M511.7640453629658 317.4011020015216C521.6460059253777 350.5305100424572 429.545037387771 468.1122095347264 383.575791635008 492.2455672624426C337.606545882245 516.378924990159 300.99362631211494 466.3706271354954 291.111665749703 433.24121909455977C281.2297051872911 400.1118110536242 290.17313518266747 357.3577663936678 336.1423809354305 333.2244086659515C382.1116266881935 309.0910509382352 501.8820848005538 284.271693960586 511.7640453629658 317.4011020015216C521.6460059253777 350.5305100424572 429.545037387771 468.1122095347264 383.575791635008 492.2455672624426 "></path><path d="M499.3458638767812 326.5787675072119C508.1298288211474 356.0271302102658 426.2623012321636 460.5441964256161 385.40074945192987 481.9960699613639C344.53919767169606 503.44794349711185 311.9943802760249 458.9961231818553 303.21041533165874 429.5477604788014C294.42645038729256 400.09939777574755 302.37616593873827 362.095802522453 343.2377177189721 340.64392898670513C384.0992694992059 319.1920554509573 490.56189893241503 297.13040480415805 499.3458638767812 326.5787675072119C508.1298288211474 356.0271302102658 426.2623012321636 460.5441964256161 385.40074945192987 481.9960699613639 "></path><path d="M486.92762135544035 335.7564330129022C494.6135906817608 361.52375037807434 422.9795040414 452.9761833165059 387.22564623369544 471.74657266028527C351.4717884259909 490.5169620040647 322.99507320477863 451.6216192282152 315.30910387845825 425.854301863043C307.62313455213786 400.0869844978709 314.5791356596528 366.8338386512382 350.3329934673574 348.0634493074588C386.086851275062 329.29305996367947 479.24165202912 309.9891156477301 486.92762135544035 335.7564330129022C494.6135906817608 361.52375037807434 422.9795040414 452.9761833165059 387.22564623369544 471.74657266028527 "></path><path d="M474.50936357531054 344.9340680010144C481.09733728358515 367.0203400283048 419.69669159184735 445.4081396898175 389.05052775667195 461.4970448416284C358.4043639214966 477.58594999343927 333.9957508747433 444.2470847569969 327.4077771664687 422.1608127297065C320.81980345819403 400.07454070241613 326.7820901217783 371.5718442624452 357.42825395695365 355.48293911063433C388.074417792129 339.39403395882346 467.92138986703594 322.84779597372403 474.50936357531054 344.9340680010144C481.09733728358515 367.0203400283048 419.69669159184735 445.4081396898175 389.05052775667195 461.4970448416284 "></path><path d="M462.0911515715478 354.11171824791563C467.5811296617767 372.5169449373243 416.41392491866185 437.84011132191824 390.8754550560157 451.2475322817607C365.33698519336957 464.6549532416031 344.99647432107514 436.87256554456775 339.50649623084627 418.4673388551591C334.01651814061745 400.0621121657504 338.985090360271 376.30986513244136 364.5235602229171 362.9024441725989C390.06203008556326 349.4950232127565 456.60117348131894 335.70649155850697 462.0911515715478 354.11171824791563C467.5811296617767 372.5169449373243 416.41392491866185 437.84011132191824 390.8754550560157 451.2475322817607 "></path><path d="M449.6729243089961 363.28938375360593C454.06490678117916 378.0135651051329 413.1311429866873 430.27209821280803 392.7003670965704 440.99803498068195C372.26959120645347 451.7239717485559 355.9971825086179 429.49806159092765 351.60520003643484 414.7738802394007C347.21321756425175 400.0496988878738 351.1880753399746 381.0479012612265 371.6188512300915 370.3219644933526C392.0496271202084 359.5960277254787 445.280941836813 348.565202402079 449.6729243089961 363.28938375360593C454.06490678117916 378.0135651051329 413.1311429866873 430.27209821280803 392.7003670965704 440.99803498068195 "></path><path d="M437.2546817876553 372.4670340005072C440.5486686417926 383.5101700141524 409.84834579592365 422.70406984490876 394.525263878336 430.7485224208142C379.2021819607483 438.79297499671964 366.99787543737165 422.1235423784985 363.70388858323435 411.0804063648533C360.40990172909704 400.03727035120806 363.39104506088916 385.7859221312226 378.7141269784768 377.74146955531717C394.0372088960645 369.6970169794117 433.96069493351797 361.423897986862 437.2546817876553 372.4670340005072C440.5486686417926 383.5101700141524 409.84834579592365 422.70406984490876 394.525263878336 430.7485224208142 "></path><path d="M424.83646978389254 381.64468424740846C427.0324610199841 389.0067749231719 406.5655791227382 415.1360414770095 396.35019117767973 420.49900986094644C386.13480323262127 425.8619782448834 377.9985988837035 414.74902316606926 375.802607647612 407.3869324903058C373.6066164115204 400.02484181454236 375.59404529938183 390.5239430012187 385.8094332444403 385.16097461728174C396.0248211894987 379.7980062333448 422.640478547801 374.28259357164495 424.83646978389254 381.64468424740846C427.0324610199841 389.0067749231719 406.5655791227382 415.1360414770095 396.35019117767973 420.49900986094644 "></path><path d="M412.41822726255174 390.82234975309876C413.5162228805975 394.50339509098046 403.28278193197457 407.5680283678993 398.1750879594453 410.24951255986775C393.0673939869161 412.93099675183623 388.9992918124572 407.37451921242916 387.90129619441143 403.69347387454746C386.8033005763657 400.0124285366657 387.7970150202964 395.2619791300039 392.9047089928256 392.58049493803543C398.01240296535485 389.89901074606695 411.320231644506 387.141304415217 412.41822726255174 390.82234975309876C413.5162228805975 394.50339509098046 403.28278193197457 407.5680283678993 398.1750879594453 410.24951255986775 "></path></g><defs><linearGradient x1="50%" y1="0%" x2="50%" y2="100%" id="uundulate-grad"><stop stop-color="hsl(340, 100%, 38%)" stop-opacity="1" offset="45%"></stop><stop stop-color="hsl(340, 73%, 63%)" stop-opacity="1" offset="100%"></stop></linearGradient></defs></svg>