<svg xmlns="http://www.w3.org/2000/svg" version="1.1" xmlns:xlink="http://www.w3.org/1999/xlink" xmlns:svgjs="http://svgjs.dev/svgjs" viewBox="0 0 800 800"><defs><filter id="uuunion-blur" x="-100%" y="-100%" width="400%" height="400%" color-interpolation-filters="sRGB">
        <feGaussianBlur in="SourceGraphic" stdDeviation="7.5 0" result="blur"></feGaussianBlur>
        <feDropShadow stdDeviation="12.307692307692308" in="blur" dx="10" dy="10" flood-color="hsl(331, 90%, 56%)" flood-opacity="0.25" x="0%" y="0%" width="100%" height="100%"></feDropShadow>
      </filter><filter id="uuunion-blur2" x="-100%" y="-100%" width="400%" height="400%" color-interpolation-filters="sRGB">
        <feGaussianBlur in="SourceGraphic" stdDeviation="7.5 0" result="blur"></feGaussianBlur>
        <feDropShadow stdDeviation="12.307692307692308" in="blur" dx="-10" dy="-10" flood-color="hsl(331, 90%, 56%)" flood-opacity="0.25" x="0%" y="0%" width="100%" height="100%"></feDropShadow>
      </filter><linearGradient gradientTransform="rotate(0, 0.5, 0.5)" x1="50%" y1="0%" x2="50%" y2="100%" id="uuunion-grad"><stop stop-color="hsl(206, 75%, 49%)" offset="10%"></stop><stop stop-color="hsl(331, 90%, 56%)" offset="90%"></stop></linearGradient><linearGradient gradientTransform="rotate(135, 0.5, 0.5)" x1="50%" y1="0%" x2="50%" y2="100%" id="uuunion-grad2"><stop stop-color="hsl(206, 75%, 49%)" offset="25%"></stop><stop stop-color="hsl(331, 90%, 56%)" offset="100%"></stop></linearGradient><linearGradient gradientTransform="rotate(333, 0.5, 0.5)" x1="50%" y1="0%" x2="50%" y2="100%" id="uuunion-grad3"><stop stop-color="hsl(206, 75%, 49%)" offset="0%"></stop><stop stop-color="hsl(331, 90%, 56%)" offset="75%"></stop></linearGradient></defs><path d="M-79.02 -79.98Q-64.37 -77.43 -49.72 -75.1 -35.07 -73.19 -20.42 -71.86 -5.77 -71.24 8.88 -71.36 23.53 -72.23 38.18 -73.77 52.83 -75.84 67.48 -78.26 82.13 -80.84 96.78 -83.34 111.43 -85.56 126.08 -87.29 140.73 -88.41 155.38 -88.79 170.03 -88.43 184.69 -87.34 199.34 -85.62 213.99 -83.41 228.64 -80.91 243.29 -78.34 257.94 -75.9 272.59 -73.82 287.24 -72.27 301.89 -71.38 316.54 -71.23 331.19 -71.83 345.84 -73.14 360.5 -75.03 375.15 -77.35 389.8 -79.9 404.45 -82.45 419.1 -84.8 433.75 -86.73 448.4 -88.08 463.05 -88.74 477.7 -88.65 492.35 -87.81 507 -86.3 521.65 -84.26 536.31 -81.84 550.96 -79.27 565.61 -76.76 580.26 -74.52 594.91 -72.76 609.56 -71.62 624.21 -71.2 638.86 -71.53 653.51 -72.59 668.16 -74.29 682.81 -76.47 697.46 -78.96 712.12 -81.54 726.77 -83.99 741.42 -86.09 756.07 -87.67 770.72 -88.59 785.37 -88.77 800.02 -88.2 814.67 -86.92 829.32 -85.05 843.97 -82.75 858.62 -80.2 856.01 -65.21 856.89 -50.22 861.16 -35.22 868.17 -20.23 876.91 -5.23 886.11 9.75 894.41 24.75 900.6 39.74 903.79 54.74 903.49 69.73 899.77 84.73 893.15 99.72 884.61 114.72 875.4 129.71 866.86 144.7 860.24 159.7 856.5 174.69 856.2 189.69 859.37 204.68 865.56 219.68 873.86 234.67 883.05 249.67 891.8 264.66 898.82 279.66 903.09 294.65 903.99 309.65 901.38 324.64 895.65 339.63 887.63 354.63 878.49 369.62 869.58 384.62 862.18 399.61 857.39 414.61 855.91 429.6 857.94 444.6 863.19 459.59 870.9 474.59 879.94 489.58 888.99 504.58 896.72 519.57 902.01 534.57 904.08 549.56 902.63 564.55 897.88 579.55 890.51 594.54 881.61 609.54 872.47 624.53 864.43 639.53 858.66 654.52 856.01 669.52 856.87 684.51 861.1 699.51 868.1 714.5 876.83 729.5 886.03 744.49 894.34 759.48 900.56 774.48 903.77 789.47 903.51 804.47 899.81 819.46 893.22 834.46 884.69 849.45 875.48 864.45 866.93 879.44 852.14 872.74 837.36 866.66 822.57 861.73 807.78 858.37 793 856.86 778.21 857.34 763.42 859.77 748.64 863.93 733.85 869.47 719.06 875.92 704.28 882.72 689.49 889.28 674.7 895.04 659.92 899.52 645.13 902.31 630.35 903.19 615.56 902.08 600.77 899.07 585.99 894.42 571.2 888.54 556.41 881.92 541.63 875.13 526.84 868.76 512.05 863.36 497.27 859.39 482.48 857.18 467.69 856.94 452.91 858.67 438.12 862.24 423.33 867.33 408.55 873.51 393.76 880.25 378.97 886.96 364.19 893.08 349.4 898.07 334.61 901.51 319.83 903.1 305.04 902.71 290.25 900.37 275.47 896.27 260.68 890.78 245.9 884.37 231.11 877.57 216.32 870.99 201.54 865.18 186.75 860.64 171.96 857.76 157.18 856.8 142.39 857.82 127.6 860.75 112.82 865.33 98.03 871.17 83.24 877.77 68.46 884.56 53.67 890.96 38.88 896.42 24.1 900.46 9.31 902.75 -5.47 903.08 -20.25 901.43 -35.04 897.94 -49.83 892.91 -64.61 886.77 -79.4 880.05 -79.79 865.04 -80.21 850.04 -80.6 835.04 -80.9 820.04 -81.07 805.04 -81.08 790.04 -80.93 775.04 -80.65 760.04 -80.27 745.04 -79.85 730.04 -79.45 715.04 -79.13 700.04 -78.94 685.04 -78.9 670.04 -79.02 655.04 -79.28 640.04 -79.65 625.04 -80.07 610.04 -80.47 595.04 -80.81 580.04 -81.03 565.04 -81.09 550.03 -81 535.03 -80.76 520.03 -80.41 505.03 -79.99 490.03 -79.58 475.03 -79.23 460.03 -78.99 445.03 -78.9 430.03 -78.96 415.03 -79.18 400.03 -79.52 385.03 -79.93 370.03 -80.34 355.03 -80.71 340.03 -80.97 325.03 -81.09 310.03 -81.05 295.03 -80.85 280.03 -80.53 265.03 -80.13 250.02 -79.71 235.02 -79.34 220.02 -79.05 205.02 -78.91 190.02 -78.92 175.02 -79.09 160.02 -79.4 145.02 -79.79 130.02 -80.21 115.02 -80.6 100.02 -80.9 85.02 -81.07 70.02 -81.08 55.02 -80.94 40.02 -80.65 25.02 -80.27 10.02 -79.85 -4.97 -79.46 -19.97 -79.14 -34.97 -78.94 -49.97 -78.9 -64.98 -79.02 -79.98" fill="url(#uuunion-grad)"></path><path d="M-79.02 -79.98Q-78.9 -64.98 -78.94 -49.97 -79.14 -34.97 -79.46 -19.97 -79.85 -4.97 -80.27 10.02 -80.65 25.02 -80.94 40.02 -81.08 55.02 -81.07 70.02 -80.9 85.02 -80.6 100.02 -80.21 115.02 -79.79 130.02 -79.4 145.02 -79.09 160.02 -78.92 175.02 -78.91 190.02 -79.05 205.02 -79.34 220.02 -79.71 235.02 -80.13 250.02 -80.53 265.03 -80.85 280.03 -81.05 295.03 -81.09 310.03 -80.97 325.03 -80.71 340.03 -80.34 355.03 -79.93 370.03 -79.52 385.03 -79.18 400.03 -69.38 403.15 -59.57 406.14 -49.76 408.9 -39.96 411.32 -30.15 413.31 -20.35 414.78 -1.96 415.91 1.21 415.98 13.6 409.02 26.09 401.15 38.69 392.5 51.41 383.21 64.25 373.47 77.19 363.5 90.22 353.5 103.33 343.72 116.5 334.35 129.69 325.57 142.87 317.54 156.03 310.33 169.12 304.01 182.11 298.55 194.98 293.92 207.69 289.99 220.23 286.62 232.58 283.64 244.71 280.85 256.64 278.03 268.36 274.98 279.87 271.53 291.2 267.5 302.37 262.78 313.4 257.28 324.34 250.97 335.22 243.86 346.09 236.02 357 227.55 367.99 218.59 379.13 209.3 390.44 199.88 401.99 190.51 413.8 181.38 425.91 172.65 438.35 164.46 451.14 156.93 464.27 150.11 477.76 144.04 491.58 138.68 505.71 133.98 520.13 129.83 534.79 126.11 549.63 122.65 564.61 119.28 579.65 115.84 594.68 112.15 609.64 108.07 624.45 103.48 639.05 98.29 653.36 92.44 667.33 85.93 680.9 78.77 694.02 71.03 706.67 62.82 718.82 54.25 730.47 45.47 741.61 36.63 752.28 27.89 762.49 19.39 772.31 11.26 781.78 3.61 790.98 -3.48 800 -9.99 790.45 -27.23 782.8 -44.47 778.55 -61.71 778.55 -78.94 782.79 -96.18 790.44 -113.42 797.22 -139.08 779.38 -146.49 764.3 -144.91 749.22 -142.93 734.15 -140.69 719.07 -138.39 704 -136.23 688.92 -134.39 673.85 -133.02 658.77 -132.25 643.69 -132.13 628.62 -132.68 613.54 -133.85 598.47 -135.54 583.39 -137.61 568.31 -139.88 553.24 -142.16 538.16 -144.26 523.09 -146 508.01 -147.22 492.94 -147.83 477.86 -147.78 462.78 -147.07 447.71 -145.76 432.63 -143.96 417.56 -141.82 402.48 -139.53 387.41 -137.27 372.33 -135.25 357.25 -133.63 342.18 -132.55 327.1 -132.1 312.03 -132.33 296.95 -133.2 281.87 -134.64 266.8 -136.55 251.72 -138.74 236.65 -141.04 221.57 -143.25 206.5 -145.19 191.42 -146.68 176.34 -147.61 161.27 -147.89 146.19 -147.5 131.12 -146.48 116.04 -144.9 100.97 -142.91 85.89 -140.67 70.81 -138.38 55.74 -136.22 40.66 -134.38 25.59 -133.02 10.51 -132.25 -4.56 -132.13 -19.63 -132.69 -34.71 -133.86 -49.78 -135.55 -64.86 -137.62 -79.93 -139.9 -95.01 -142.18 -110.09 -144.27 -125.16 -146 -134.4 -133.83 -116.34 -115.52 -106.85 -106.86 -97.47 -98.02 -88.19 -89.04 -79.02 -79.98" fill="url(#uuunion-grad2)" filter="url(#uuunion-blur)"></path><path d="M783.74 384Q793.54 384.24 803.35 385.08 813.15 386.49 822.96 388.43 832.77 390.8 842.57 393.53 852.38 396.5 862.18 399.61 857.39 414.61 855.91 429.6 857.94 444.6 863.19 459.59 870.9 474.59 879.94 489.58 888.99 504.58 896.72 519.57 902.01 534.57 904.08 549.56 902.63 564.55 897.88 579.55 890.51 594.54 881.61 609.54 872.47 624.53 864.43 639.53 858.66 654.52 856.01 669.52 856.87 684.51 861.1 699.51 868.1 714.5 876.83 729.5 886.03 744.49 894.34 759.48 900.56 774.48 903.77 789.47 903.51 804.47 899.81 819.46 893.22 834.46 884.69 849.45 875.48 864.45 866.93 879.44 853.36 873.28 839.79 867.6 826.22 862.82 812.65 859.28 799.08 857.25 785.51 856.86 771.94 858.14 758.37 861.01 744.8 865.25 731.23 870.56 717.66 876.56 704.09 882.8 690.52 888.84 676.95 894.24 663.38 898.61 649.81 901.63 636.24 903.08 622.67 902.86 609.11 900.99 595.54 897.59 581.97 892.92 568.4 887.32 554.83 881.18 541.26 874.96 527.69 869.11 514.12 864.04 500.55 860.13 486.98 857.65 473.41 856.8 459.84 857.62 446.27 860.06 432.7 863.95 419.13 869 405.56 874.85 391.99 881.06 378.42 887.2 364.85 892.82 351.28 897.51 337.71 900.93 324.14 902.84 310.57 903.09 297 901.67 283.43 898.68 269.86 894.33 256.29 888.95 242.72 882.92 229.15 876.68 215.58 870.68 202.01 865.35 188.44 861.08 174.87 858.18 161.3 856.87 147.73 857.22 134.16 859.23 120.59 862.74 107.02 867.5 93.46 873.16 79.89 879.32 66.32 885.53 52.75 891.34 39.18 896.32 25.61 900.13 5.36 897.76 -1.05 882.89 -0.81 872.74 -0.57 862.59 -0.36 852.44 -0.19 842.29 0.19 827.07 0.99 822 13.82 815 26.61 806.74 39.33 797.35 51.97 787.03 64.5 776.03 76.91 764.64 89.19 753.16 101.34 741.92 113.36 731.19 125.25 721.26 137.04 712.32 148.73 704.54 160.35 697.98 171.93 692.67 183.5 688.53 195.1 685.42 206.75 683.15 218.51 681.48 230.39 680.12 242.44 678.79 254.67 677.18 267.12 675.03 279.81 672.09 292.73 668.18 305.9 663.16 319.32 656.98 332.96 649.63 346.81 641.21 360.85 631.83 375.03 621.71 389.31 611.08 403.65 600.2 417.99 589.36 432.29 578.82 446.49 568.84 460.52 559.64 474.35 551.38 487.92 544.17 501.18 538.07 514.11 533.04 526.67 529.01 538.85 525.84 550.64 523.33 562.04 521.25 573.07 519.35 583.74 517.36 594.11 515.05 604.21 512.17 614.1 508.52 623.84 503.97 633.51 498.43 643.18 491.85 652.93 484.27 662.83 475.78 672.97 466.53 683.41 456.7 694.22 446.51 705.46 436.2 717.17 426.01 729.41 416.18 742.18 406.91 755.49 398.38 776.55 387.36 783.74 384" fill="url(#uuunion-grad3)" filter="url(#uuunion-blur2)"></path></svg>