<svg id="visual" viewBox="0 0 900 900" width="900" height="900" 
xmlns="http://www.w3.org/2000/svg" xmlns:xlink="http://www.w3.org/1999/xlink" version="1.1"><path d="M0 280L13.7 277C27.3 274 54.7 268 82 248.5C109.3 229 136.7 196 163.8 170.5C191 145 218 127 245.2 143.5C272.3 160 299.7 211 327 251.5C354.3 292 381.7 322 409 317.5C436.3 313 463.7 274 491 268C518.3 262 545.7 289 573 286C600.3 283 627.7 250 654.8 236.5C682 223 709 229 736.2 224.5C763.3 220 790.7 205 818 215.5C845.3 226 872.7 262 886.3 280L900 298L900 0L886.3 0C872.7 0 845.3 0 818 0C790.7 0 763.3 0 736.2 0C709 0 682 0 654.8 0C627.7 0 600.3 0 573 0C545.7 0 518.3 0 491 0C463.7 0 436.3 0 409 0C381.7 0 354.3 0 327 0C299.7 0 272.3 0 245.2 0C218 0 191 0 163.8 0C136.7 0 109.3 0 82 0C54.7 0 27.3 0 13.7 0L0 0Z" fill="#6198ff"></path><path d="M0 514L13.7 521.5C27.3 529 54.7 544 82 538C109.3 532 136.7 505 163.8 488.5C191 472 218 466 245.2 476.5C272.3 487 299.7 514 327 527.5C354.3 541 381.7 541 409 535C436.3 529 463.7 517 491 512.5C518.3 508 545.7 511 573 520C600.3 529 627.7 544 654.8 557.5C682 571 709 583 736.2 580C763.3 577 790.7 559 818 550C845.3 541 872.7 541 886.3 541L900 541L900 296L886.3 278C872.7 260 845.3 224 818 213.5C790.7 203 763.3 218 736.2 222.5C709 227 682 221 654.8 234.5C627.7 248 600.3 281 573 284C545.7 287 518.3 260 491 266C463.7 272 436.3 311 409 315.5C381.7 320 354.3 290 327 249.5C299.7 209 272.3 158 245.2 141.5C218 125 191 143 163.8 168.5C136.7 194 109.3 227 82 246.5C54.7 266 27.3 272 13.7 275L0 278Z" fill="#3c80ff"></path><path d="M0 649L13.7 659.5C27.3 670 54.7 691 82 694C109.3 697 136.7 682 163.8 670C191 658 218 649 245.2 647.5C272.3 646 299.7 652 327 659.5C354.3 667 381.7 676 409 674.5C436.3 673 463.7 661 491 661C518.3 661 545.7 673 573 674.5C600.3 676 627.7 667 654.8 680.5C682 694 709 730 736.2 739C763.3 748 790.7 730 818 715C845.3 700 872.7 688 886.3 682L900 676L900 539L886.3 539C872.7 539 845.3 539 818 548C790.7 557 763.3 575 736.2 578C709 581 682 569 654.8 555.5C627.7 542 600.3 527 573 518C545.7 509 518.3 506 491 510.5C463.7 515 436.3 527 409 533C381.7 539 354.3 539 327 525.5C299.7 512 272.3 485 245.2 474.5C218 464 191 470 163.8 486.5C136.7 503 109.3 530 82 536C54.7 542 27.3 527 13.7 519.5L0 512Z" fill="#0066ff"></path><path d="M0 766L13.7 776.5C27.3 787 54.7 808 82 812.5C109.3 817 136.7 805 163.8 793C191 781 218 769 245.2 763C272.3 757 299.7 757 327 757C354.3 757 381.7 757 409 751C436.3 745 463.7 733 491 745C518.3 757 545.7 793 573 803.5C600.3 814 627.7 799 654.8 797.5C682 796 709 808 736.2 805C763.3 802 790.7 784 818 772C845.3 760 872.7 754 886.3 751L900 748L900 674L886.3 680C872.7 686 845.3 698 818 713C790.7 728 763.3 746 736.2 737C709 728 682 692 654.8 678.5C627.7 665 600.3 674 573 672.5C545.7 671 518.3 659 491 659C463.7 659 436.3 671 409 672.5C381.7 674 354.3 665 327 657.5C299.7 650 272.3 644 245.2 645.5C218 647 191 656 163.8 668C136.7 680 109.3 695 82 692C54.7 689 27.3 668 13.7 657.5L0 647Z" fill="#0059dd"></path><path d="M0 901L13.7 901C27.3 901 54.7 901 82 901C109.3 901 136.7 901 163.8 901C191 901 218 901 245.2 901C272.3 901 299.7 901 327 901C354.3 901 381.7 901 409 901C436.3 901 463.7 901 491 901C518.3 901 545.7 901 573 901C600.3 901 627.7 901 654.8 901C682 901 709 901 736.2 901C763.3 901 790.7 901 818 901C845.3 901 872.7 901 886.3 901L900 901L900 746L886.3 749C872.7 752 845.3 758 818 770C790.7 782 763.3 800 736.2 803C709 806 682 794 654.8 795.5C627.7 797 600.3 812 573 801.5C545.7 791 518.3 755 491 743C463.7 731 436.3 743 409 749C381.7 755 354.3 755 327 755C299.7 755 272.3 755 245.2 761C218 767 191 779 163.8 791C136.7 803 109.3 815 82 810.5C54.7 806 27.3 785 13.7 774.5L0 764Z" fill="#004cbb"></path></svg>