<?xml version="1.0" encoding="UTF-8" standalone="no"?>
<!-- Created with Inkscape (http://www.inkscape.org/) -->

<svg
   width="1920"
   height="1080"
   viewBox="0 0 508 285.75"
   version="1.1"
   id="svg5"
   xmlns="http://www.w3.org/2000/svg"
   xmlns:svg="http://www.w3.org/2000/svg">
  <defs
     id="defs2" />
  <g
     id="layer1">
    <path
       style="display:none;fill:none;fill-opacity:1;stroke:#f4f4f4;stroke-width:0.265;stroke-dasharray:none;stroke-opacity:1"
       d="m -2.0774173,206.95341 c 28.5002123,0.38587 57.0004243,0.77175 78.6711453,6.87285 21.670722,6.10111 36.511362,17.91698 64.714222,24.54097 28.20287,6.62398 69.76601,8.05579 111.32997,9.48762 M 507.8085,206.95341 c -28.50021,0.38587 -57.00043,0.77175 -78.67115,6.87285 -21.67072,6.10111 -36.51136,17.91698 -64.71422,24.54097 -28.20287,6.62398 -69.76601,8.05579 -111.32997,9.48762"
       id="path1" />
    <path
       style="display:none;fill:none;fill-opacity:1;stroke:#f4f4f4;stroke-width:0.265;stroke-dasharray:none;stroke-opacity:1"
       d="m 253.10703,247.84834 c -0.17,0.009 -0.34108,0.006 -0.51176,0.006"
       id="path3" />
    <path
       style="display:none;fill:none;fill-opacity:1;stroke:#f4f4f4;stroke-width:0.264999;stroke-dasharray:none;stroke-opacity:1"
       d="m -1.5840067,202.73932 0.20865,92.65238 512.0739367,-3.15915 -1.05325,-85.72985 -1.94715,0.45776 v 0"
       id="path4" />
    <path
       style="display:none;fill:#55909e;fill-opacity:1;stroke:#f4f4f4;stroke-width:1.53596"
       d="m -3.8338658,981.72269 c 0,-73.6691 -0.45221,-148.46426 -1.004911,-166.21147 l -1.0049111,-32.26765 31.2924509,0.6189 c 93.444237,1.84813 150.034297,5.29628 196.148677,11.95174 60.21383,8.69035 92.24303,18.90716 168.6901,53.80944 19.82109,9.04941 45.1269,20.11666 56.23515,24.59387 97.33913,39.23287 192.95221,52.12722 460.99994,62.17029 35.88546,1.34453 59.05005,1.33671 96.61337,-0.0326 261.9293,-9.54843 361.5479,-22.77309 457.3337,-60.71235 10.1214,-4.00893 37.0647,-15.74464 59.8741,-26.07934 22.8095,-10.33471 49.4084,-21.92947 59.109,-25.76612 52.2758,-20.67564 108.0523,-31.08471 194.6271,-36.32151 23.6287,-1.42927 149.0434,-4.88472 149.7023,-4.12462 0.5728,0.66078 4.0544,318.61053 3.4948,319.16613 -0.7275,0.7224 -289.5519,2.688 -1130.83291,7.6957 -344.12779,2.0484 -665.19489,4.1134 -713.482428,4.5889 l -87.7955278,0.8645 z"
       id="path2"
       transform="scale(0.26458333)" />
    <ellipse
       style="display:inline;fill:#008080;stroke-width:1.3297"
       id="path169-3"
       cx="253.05963"
       cy="140.6945"
       rx="108.07623"
       ry="106.0282" />
    <ellipse
       style="display:none;fill:#008080;stroke-width:0.264583"
       id="path169"
       cx="43.730007"
       cy="250.0816"
       rx="21.282997"
       ry="21.317642" />
  </g>
</svg>
